<?xml version="1.0" encoding="utf-8" ?>
<svg xmlns="http://www.w3.org/2000/svg" xmlns:xlink="http://www.w3.org/1999/xlink" width="512" height="512">
	<path fill="#FEFEFE" transform="scale(0.5 0.5)" d="M-0 -0L1024 0L1024 1024L-0 1024L0 -0Z"/>
	<path transform="scale(0.5 0.5)" d="M292.58 501.028C290.477 493.377 289.16 484.455 290.795 476.616C292.705 467.461 298.001 458.866 302.132 450.563C294.539 442.924 291.857 435.079 290.473 424.616C281.04 426.236 271.629 426.293 262.093 426.059C250.407 425.772 238.682 424.924 227.284 422.194C204.105 416.641 183.569 402.637 168.703 384.119C164.537 378.93 161.154 373.26 157.69 367.597C167.841 374.744 177.761 380.487 189.894 383.651C217.332 390.809 249.818 382.398 273.817 368.472C269.965 360.251 264.203 353.327 260.563 344.86C246.046 311.087 247.328 271.355 254.654 235.949C266.053 180.861 290.302 128.433 325.425 84.4336C334.427 73.1554 344.136 61.7103 354.843 52.0083C362.67 44.9153 371.458 38.4882 380.28 32.7016L377.594 36.4269C371.555 45.2623 366.877 55.715 362.63 65.5157C345.438 105.183 335.528 150.068 343.863 193.113C348.441 216.755 358.968 241.181 376.936 257.73C381.502 261.935 386.834 265.37 391.956 268.855C408.129 263.029 423.679 260.219 440.776 258.855L450.989 258.528C452.198 258.516 454.467 258.799 455.569 258.494C456.253 258.306 459.486 254.17 460.317 253.374C462.069 251.696 464.026 250.152 466.25 249.154C472.637 246.288 480.553 246.067 487.439 245.945C502.582 245.679 518.412 246.728 532.75 252.002C535.818 253.131 538.96 254.469 541.75 256.186C543.797 257.445 546.245 259.671 548.457 260.469C550.307 261.136 553.25 260.854 555.25 261.06C559.359 261.484 563.546 262.307 567.603 263.094C581.478 265.788 594.953 270.018 608.165 274.984L608.599 274.713C612.707 272.081 616.628 268.533 620.159 265.171C635.26 250.794 644.589 233.322 649.029 213.049C652.743 196.092 652.226 177.943 650.603 160.763C647.503 127.932 639.59 95.7052 627.46 65.0503C622.363 52.1699 617.049 39.8524 609.528 28.1698L625.276 38.2642C637.535 47.322 648.035 58.0559 658.142 69.4082C683.684 98.0964 704.285 131.132 721.039 165.605C730.612 185.302 739.258 205.803 745.488 226.819C749.244 239.487 751.64 252.631 753.56 265.697C757.121 289.928 755.994 313.359 749.573 337C747.016 346.413 743.817 355.571 739.129 364.158C735.671 370.492 731.326 376.123 727.026 381.886L729.826 382.636C756.459 389.555 787.279 386.488 812.514 375.873C820.836 372.373 828.645 367.629 836.41 363.051C833.311 369.344 828.959 374.924 824.339 380.166C811.755 394.445 796.102 405.193 779.152 413.679C753.999 426.272 727.51 433.458 699.435 435.233C694.525 442.65 688.25 449.676 681.667 455.629L681.667 459.762C685.076 460.288 687.65 462.128 690.604 463.776L702.345 470.538C744.888 496.346 781.271 530.234 810.655 570.362C841.693 612.749 861.981 660.055 872.555 711.5C877.026 733.251 880.004 755.756 880.015 778.004L889.962 786.251L884.234 807.437C885.793 809.672 888.51 811.686 890.494 813.59C893.878 816.837 897.165 820.268 900.196 823.848C918.295 845.225 935.259 871.235 944.803 897.553C939.38 901.605 933.975 905.788 928.259 909.418C895.88 929.98 859.418 943.209 823 954.562C766.045 972.317 707.63 983.275 648.417 990.144C595.04 996.336 541.5 999.2 487.75 998.445C437.556 997.74 387.702 993.371 338.037 986.166C291.53 979.419 245.642 968.888 200.848 954.707C170.099 944.973 139.62 933.626 111.137 918.385C99.7422 912.288 88.4617 905.933 78.3492 897.828C94.1415 866.575 115.06 839.109 140.593 815.148C144.904 811.103 150.594 804.911 155.866 802.369C153.294 773.629 154.199 745.189 159.07 716.754C173.597 631.949 221.993 551.056 292.58 501.028Z"/>
	<path fill="#686868" transform="scale(0.5 0.5)" d="M435.407 266.435L452.22 264.152L448.745 268.851L448.542 268.312C448.51 268.266 447.335 266.996 447.25 266.946C446.995 266.797 444.944 266.943 444.562 266.942C441.429 266.933 438.511 266.951 435.407 266.435Z"/>
	<path fill="#FEFEFE" transform="scale(0.5 0.5)" d="M349.668 436.25L351.154 436.25C352.512 437.528 352.909 438.485 353.462 440.25C352.948 442.227 352.901 442.28 351.25 443.487C350.76 443.466 350.294 443.471 349.813 443.355C348.708 443.089 347.546 442.211 347.059 441.166C346.879 440.78 348.788 439.361 349.668 436.25Z"/>
	<path fill="#E08500" transform="scale(0.5 0.5)" d="M348.139 457.302C344.839 454.413 343.025 451.041 341.702 446.9C342.183 445.217 342.574 441.894 343.737 440.75C343.872 442.052 343.935 441.465 343.566 442.734C343.336 443.523 343.178 444.168 343.126 445L343.75 445.503C345.017 444.304 345.047 442.683 346.25 441.362C349.429 445.734 351.041 449.788 355.2 453.42C353.524 454.095 352.076 454.649 350.274 454.853L348.139 457.302Z"/>
	<path fill="#686868" transform="scale(0.5 0.5)" d="M311.078 598.994C312.548 597.919 313.985 596.765 315.691 596.087C320.096 594.338 325.723 595.222 329.968 596.996L333.011 598.097C337.226 603.155 339.155 609.368 339.103 615.96L339.034 622.667C339.973 624.402 340.164 625.471 340.19 627.433L340.912 627.933L340.233 629.043C339.078 628.994 338.026 629.109 337.006 628.523C334.03 630.985 332.191 631.274 328.391 631.57L326.4 630.949L324.51 629.338L324.75 628.847C325.73 629.439 326.71 629.778 327.827 630.01C329.388 630.334 331.158 630.392 332.479 629.399C336.306 626.521 337.397 619.902 338.023 615.493C337.87 612.533 337.717 609.515 336.784 606.686L336.549 606C336.126 604.684 335.711 603.555 334.993 602.354C333.301 599.522 330.284 597.664 327.112 596.91C324.081 596.19 318.095 595.733 315.445 597.75C313.331 599.359 313.947 607.441 313.745 610.337L311.078 598.994Z"/>
	<path fill="#18191A" transform="scale(0.5 0.5)" d="M339.034 622.667C339.973 624.402 340.164 625.471 340.19 627.433L340.912 627.933L340.233 629.043C339.078 628.994 338.026 629.109 337.006 628.523C337.986 626.674 338.465 624.671 339.034 622.667Z"/>
	<path fill="#D8B583" transform="scale(0.5 0.5)" d="M245.207 754.75C246.339 754.421 245.779 754.415 246.885 754.75L246.131 766.599L237.75 769.533L236.492 769.833C235.192 767.601 236.831 760.959 237.325 758.263C239.662 756.802 242.651 755.827 245.207 754.75Z"/>
	<path fill="#18191A" transform="scale(0.5 0.5)" d="M326.4 630.949L328.391 631.57C336.179 636.394 346.305 640.775 355.315 642.602L356.901 649.368L344.707 644.226C338.911 641.397 328.655 637.52 326.4 630.949Z"/>
	<path fill="#FEBD2B" transform="scale(0.5 0.5)" d="M355.2 453.42L355.779 453.653C357.376 454.286 359.008 454.95 360.75 454.992C362.118 455.025 366.9 453.758 367.815 454.106C369.092 454.59 372.242 458.372 373.451 459.453C367.526 461.993 360.502 463.605 354.24 461.076C352.041 460.187 349.959 458.815 348.139 457.302L350.274 454.853C352.076 454.649 353.524 454.095 355.2 453.42Z"/>
	<path fill="#424346" transform="scale(0.5 0.5)" d="M358.39 762.131C355.672 772.369 350.266 782.302 345.523 791.735L342.349 788.172L338.162 782.971C345.84 776.708 352.051 769.695 358.39 762.131Z"/>
	<path fill="#FEFEFE" transform="scale(0.5 0.5)" d="M167.44 803.735C166.815 795.05 167.757 785.672 168.798 777.037L180.601 770.809L177.917 787.206C176.007 787.262 174.541 787.259 172.75 787.963L170.849 788.504C170.27 791.886 170.139 795.337 169.785 798.748C169.709 799.477 169.614 801.401 169.25 802.007C168.919 802.559 167.934 803.264 167.44 803.735Z"/>
	<path fill="#A7B3BC" transform="scale(0.5 0.5)" d="M313.097 393.692L312.986 394.103C310.339 403.623 305.89 412.331 304.722 422.328C303.943 428.996 304.692 435.424 304.343 442.015C301.631 436.976 298.881 431.595 298.601 425.75C298.01 413.401 305.138 402.348 313.097 393.692Z"/>
	<path fill="#686868" transform="scale(0.5 0.5)" d="M387.396 633.723L387.096 633.817C385.12 634.372 379.822 635.862 378.098 634.836C371.815 631.094 364.789 620.092 363.057 613.183L362.892 612.5C362.52 611.012 362.434 609.612 362.421 608.078C362.389 604.131 362.847 600.668 365.858 597.846C368.41 595.454 372.338 594.547 375.723 594.688L375.787 595.257C371.956 595.811 368.073 596.486 365.481 599.669C363.873 601.643 363.327 604.547 363.676 607.019C364.703 614.292 371.289 623.848 377.332 628.04C380.549 630.271 383.213 629.685 386.891 628.936C394.142 627.46 401.746 624.642 408.292 621.191C406.819 622.897 405.077 623.864 403.25 625.112C398.136 628.606 393.254 631.554 387.396 633.723Z"/>
	<path fill="#18191A" transform="scale(0.5 0.5)" d="M408.292 621.191L408.524 620.823C409.428 619.702 411.453 618.867 412.75 618.255L413.245 618.75L412.649 619.186C411.745 619.891 411.77 620.159 411.431 621.168C410.884 622.796 408.838 624.381 407.624 625.57C400.401 632.647 391.367 639.521 381.864 643.212L364.395 648.07C363.878 646.894 363.095 645.511 362.791 644.28C368.548 643.203 374.581 641.653 380 639.443C383.255 638.116 385.968 637.157 387.396 633.723C393.254 631.554 398.136 628.606 403.25 625.112C405.077 623.864 406.819 622.897 408.292 621.191Z"/>
	<path fill="#A7B3BC" transform="scale(0.5 0.5)" d="M184.027 392.75C185.465 392.511 187.75 394.341 189.027 395.065L198.976 400.189C202.593 401.895 206.327 403.475 210.093 404.822C224.069 409.822 238.42 412.562 253.272 412.706C259.24 412.764 265.404 412.089 271.334 412.632L270.18 413.108L257.727 415.252C230.992 417.843 204.658 410.001 184.027 392.75Z"/>
	<defs>
		<linearGradient id="gradient_0" gradientUnits="userSpaceOnUse" x1="728.41571" y1="397.81213" x2="744.08429" y2="424.68787">
			<stop offset="0" stop-color="#C2BFC3"/>
			<stop offset="1" stop-color="#EBEBEC"/>
		</linearGradient>
	</defs>
	<path fill="url(#gradient_0)" transform="scale(0.5 0.5)" d="M789.645 397.778C790.143 397.778 791.499 396.973 792.015 396.728C794.595 395.497 797.992 392.884 800.8 392.716C793.821 397.26 786.574 401.904 779.102 405.581C753.49 418.184 725.616 422.9 697.234 421.994C691.107 421.799 685.118 420.932 679.032 420.417C681.259 419.104 700.983 419.83 704.757 419.688C721.231 419.065 740.201 417.083 755.633 410.911L775.628 403.893L789.645 397.778Z"/>
	<path fill="#A7B3BC" transform="scale(0.5 0.5)" d="M306.788 455.402L306.806 455.846C306.874 458.461 305.87 460.991 305.319 463.542C303.38 472.515 301.23 482.413 303.115 491.559C303.985 495.784 305.347 499.464 307.439 503.216C313.369 513.848 322.245 522.331 325.831 534.232C326.13 535.225 326.944 537.575 326.843 538.501C326.608 540.653 324.918 543.957 324.252 546.139L323.026 548.062L322.592 548C321.112 538.776 318.57 530.86 313.844 522.756C310.046 516.244 305.552 510.143 302.494 503.225C299.126 495.605 297.11 485.794 298.819 477.511C300.385 469.918 304.033 462.617 306.788 455.402Z"/>
	<path fill="#A7B3BC" transform="scale(0.5 0.5)" d="M779.715 761.809L783.745 750.375C785.908 750.906 788.165 752.34 790.113 753.402C795.565 756.376 801.028 759.89 806.18 763.366C808.208 764.735 810.249 766.52 812.487 767.506L809.251 780.012C807.722 779.594 806.102 778.146 804.78 777.234L797.018 772.049L779.715 761.809Z"/>
	<path fill="#A7B3BC" transform="scale(0.5 0.5)" d="M876.954 826.198C877.723 824.417 878.682 820.992 880.052 819.735C895.982 836.5 910.013 855.773 920.234 876.556C922.483 881.131 924.999 885.902 926.557 890.75C925.741 891.925 924.759 892.086 923.473 892.639C917.389 880.141 910.718 867.818 902.729 856.421C895.232 845.725 886.136 835.465 876.954 826.198Z"/>
	<defs>
		<linearGradient id="gradient_1" gradientUnits="userSpaceOnUse" x1="372.35852" y1="774.63367" x2="360.25903" y2="769.54645">
			<stop offset="0" stop-color="#6F7072"/>
			<stop offset="1" stop-color="#8D939C"/>
		</linearGradient>
	</defs>
	<path fill="url(#gradient_1)" transform="scale(0.5 0.5)" d="M371.21 741.34C373.536 745.451 374.573 751.769 376.147 756.401C376.083 760.398 376.078 763.814 373.741 767.251L372.792 767.775L372.142 767.721C371.665 769.933 372.58 772.263 372.361 774.565C371.383 784.865 364.974 794.298 359.573 802.931C356.101 781.352 365.672 761.597 371.21 741.34Z"/>
	<path fill="#FEFEFE" transform="scale(0.5 0.5)" d="M336.344 428.518C337.478 428.49 338.407 428.74 339.5 429.008C339.712 429.255 340.042 429.438 340.136 429.75C340.185 429.914 338.703 433.469 338.554 433.928C337.555 436.995 337.061 439.859 337.378 443.087C338.026 449.683 342.093 455.029 347.128 459.109C354.681 465.227 362.51 464.082 371.429 463.157C368.217 465.488 365.079 466.876 361.37 468.166C354.224 469.257 347.035 469.308 340.665 465.35C330.164 458.824 326.985 447.624 324.406 436.305C326.452 432.907 332.79 430.037 336.344 428.518Z"/>
	<path fill="#939394" transform="scale(0.5 0.5)" d="M523.974 267.314C528.342 266.056 533.291 266.346 537.808 266.571C558.719 267.615 582.024 273.807 600.418 283.936L621.346 297.826C623.067 299.75 626.488 301.495 627.278 303.817L614.192 297.223C607.689 292.663 598.759 289.603 591.553 286.233C588.34 283.758 583.133 282.255 579.285 280.958C565.439 276.29 551.606 273.05 537.012 271.728L526.451 271.091C524.179 271.032 521.696 271.303 519.582 270.38L523.974 267.314Z"/>
	<path fill="#A7B3BC" transform="scale(0.5 0.5)" d="M661.176 347.547C670.272 357.718 680.73 365.538 692.426 372.538C710.959 383.631 731.098 391.312 752.804 392.537C771.375 393.586 791.872 390.69 809.25 384.081L809.25 384.368L804.638 386.609C799.938 387.356 794.789 389.622 790.164 390.959C775.007 395.342 760.231 397.903 744.422 396.293C711.329 392.924 683.678 376.47 662.759 350.947C661.909 349.746 661.528 348.975 661.176 347.547Z"/>
	<path fill="#A7B3BC" transform="scale(0.5 0.5)" d="M212.092 398.169C204.826 396.892 197.363 394.656 190.895 391.066C198.996 393.069 206.584 394.583 215 394.667C253.787 395.058 287.707 376.084 314.816 349.598C313.578 353.156 310.912 356.609 308.77 359.68C288.094 381.163 256.559 398.62 226.289 399.119L212.092 398.169Z"/>
	<defs>
		<linearGradient id="gradient_2" gradientUnits="userSpaceOnUse" x1="797.41846" y1="798.75726" x2="837.57037" y2="765.69324">
			<stop offset="0" stop-color="#E3B477"/>
			<stop offset="1" stop-color="#FEE6B7"/>
		</linearGradient>
	</defs>
	<path fill="url(#gradient_2)" transform="scale(0.5 0.5)" d="M803.802 808.367C811.267 789.708 818.318 770.531 821.777 750.67L831.594 756.437C831.037 760.598 829.276 765.075 828.074 769.138C822.746 787.136 816.232 804.383 808.206 821.355C806.649 824.646 804.923 829.149 802.753 832.037L802.012 831.703C802.275 831.11 802.516 830.544 802.878 830C803.323 829.33 803.655 828.737 804 828C805.197 825.446 807.864 821.69 808.25 819L808.255 818.25L809 817.75L809.378 816.5C809.671 815.92 810.078 815.358 810.375 814.747L805.347 808.348L804.514 808.499L803.802 808.367Z"/>
	<path fill="#323030" transform="scale(0.5 0.5)" d="M445.348 273.054C444.288 276.158 442.534 278.544 440.952 281.367L435.1 292.326C428.693 305.052 423.1 318.269 418.502 331.75C415.908 339.353 413.254 347.511 411.861 355.421C411.184 354.89 411.429 354.956 410.712 354.781L406.497 353.68C404.647 350.224 393.919 349.211 390.132 347.052C395.127 346.761 399.129 346.347 402.762 342.471C408.516 336.334 410.462 325.899 414.235 318.438C419.194 308.633 425.664 299.239 431.999 290.267C436.102 284.456 440.384 278.139 445.348 273.054Z"/>
	<path fill="#A7B3BC" transform="scale(0.5 0.5)" d="M100.436 893.439C99.2009 892.806 97.9704 892.535 97.3725 891.25C108.575 868.956 124.653 847.866 142.113 830.11C147.429 824.704 152.711 819.356 158.544 814.503C158.84 816.937 158.81 819.252 158.723 821.692L137.542 845.835L116.477 872.684L105.111 887.916C103.849 889.6 102.224 892.43 100.436 893.439Z"/>
	<path fill="#939394" transform="scale(0.5 0.5)" d="M693.716 203.25C695.324 211.238 695.793 219.627 696.547 227.75C697.576 238.827 698.804 249.936 698.385 261.078C697.468 285.486 691.961 310.678 676.822 330.471C673.505 334.808 669.623 338.558 665.625 342.25C664.991 342.704 664.725 342.809 664 343.007L662.75 341.974C662.132 337.438 671.106 328.024 673.48 324.149C678.863 315.359 683.251 305.326 686.277 295.483C692.768 274.362 695.699 250.588 695.224 228.488C695.043 220.065 693.788 211.624 693.716 203.25Z"/>
	<path fill="#AE8F64" transform="scale(0.5 0.5)" d="M827.603 879.808L837.434 881.031L837.072 881.584C825.556 899.127 812.938 916.242 799.569 932.41C797.322 935.127 794.849 939.02 792.245 941.318C791.292 942.159 789.504 942.317 788.265 942.603L777.336 945.02C784.063 938.099 789.895 930.414 795.891 922.874L827.603 879.808Z"/>
	<path fill="#323030" transform="scale(0.5 0.5)" d="M521.061 351.955L474.553 356.221L475.158 349.124C476.848 334.875 480.959 322.171 486.294 308.939C491.653 295.648 498.828 280.815 510.353 271.807C514.413 268.634 518.684 266.701 523.974 267.314L519.582 270.38C515.16 273.506 511.44 277.752 508.041 281.932C496.253 296.428 488.338 314.765 485.229 333.143C484.334 338.429 483.976 343.936 484.093 349.293L514.153 351.346C516.407 351.611 518.869 351.405 521.061 351.955Z"/>
	<path fill="#2E2010" transform="scale(0.5 0.5)" d="M443.712 778.901L443.635 778.191C443.235 775.532 440.002 771.513 438.584 769.043C433.441 760.08 426.2 745.781 426.641 735.25C427.549 734.386 428.193 733.61 429.5 733.441C431.967 736.303 434.026 739.639 436.351 742.642C447.773 757.394 459.438 773.798 467.255 790.804L467.032 790.838C465.403 791.167 464.177 791.46 462.526 791.072L462 790.939C454.049 788.993 449.42 784.442 443.712 778.901Z"/>
	<path fill="#18191A" transform="scale(0.5 0.5)" d="M675.446 209.87C675.488 214.66 675.992 219.487 675.875 224.262C675.162 253.42 668.846 288.042 647.598 309.625L642.076 315.076L628.556 304.768C631.688 304.033 634.118 302.844 636.704 300.932C642.994 296.28 648.18 289.613 652.493 283.13C660.499 271.096 666.848 258.072 670.215 243.966C672.865 232.864 673.739 221.168 675.446 209.87Z"/>
	<path fill="#C06500" transform="scale(0.5 0.5)" d="M323.04 635.593C331.293 642.963 338.393 649.626 348.434 654.629C351.258 656.035 354.526 657.668 357.612 658.324L360.666 676.533C354.612 679.09 348.787 682.326 342.969 685.381C336.546 688.754 326.316 696.011 318.75 693.051C314.5 691.388 311.677 687.275 309.268 683.616L311.593 684.25C315.112 685.088 319.356 684.887 322.433 682.873C325.239 681.037 325.572 677.891 326.203 674.83C328.201 673.33 330.602 672.434 332.808 671.271C337.791 668.644 342.886 665.994 347.606 662.916C340.618 655.994 333.305 650.036 327.161 642.249C325.561 640.222 323.894 638.623 323.158 636.052L323.04 635.593Z"/>
	<path fill="#A7B3BC" transform="scale(0.5 0.5)" d="M309.635 579.749L311.39 576.933C315.795 570.975 324.601 568.166 331.661 567.044C352.105 563.797 373.217 564.476 393.5 568.424C401.882 570.056 410.485 572.107 417.526 577.183C397.401 579.157 376.974 579.301 356.771 578.107C350.791 577.754 344.658 577.301 338.78 576.101C336.412 575.618 334.116 574.512 331.75 574.144C330.659 573.975 329.813 574.122 328.75 574.305L328.003 574.416C323.965 575.053 320.133 576.511 316.354 578.014C314.229 578.662 311.848 579.682 309.635 579.749Z"/>
	<defs>
		<linearGradient id="gradient_3" gradientUnits="userSpaceOnUse" x1="824.98444" y1="833.68073" x2="882.65125" y2="829.84351">
			<stop offset="0" stop-color="#E5B979"/>
			<stop offset="1" stop-color="#FFEBCF"/>
		</linearGradient>
	</defs>
	<path fill="url(#gradient_3)" transform="scale(0.5 0.5)" d="M863.831 808.359L871.062 782.539L880.754 790.207C876.926 802.319 873.348 814.967 867.327 826.207C859.678 845.407 848.41 863.584 837.434 881.031L827.603 879.808C838.441 863.955 847.633 846.401 855.377 828.832L863.63 808.784L863.831 808.359Z"/>
	<path fill="#18191A" transform="scale(0.5 0.5)" d="M158.074 827.428C159.063 828.744 159.31 829.52 159.467 831.156L160.769 856.637C161.942 877.54 163.459 898.292 167.197 918.925C159.583 916.421 151.722 912.737 143.914 911.043L158.074 827.428Z"/>
	<path fill="#18191A" transform="scale(0.5 0.5)" d="M619.01 301.64C625.677 304.031 630.663 310.953 633.626 317.184C637.477 325.282 639.401 334.763 641.289 343.5C645.244 361.805 648.23 380.285 648.62 399.058C644.603 396.28 641.259 393.019 637.5 389.955C634.268 387.32 630.824 385.219 627.88 382.203L628.224 381.133C629.419 376.356 629.561 370.634 629.854 365.709C631.118 344.444 629.874 320.486 619.01 301.64Z"/>
	<path fill="#323030" transform="scale(0.5 0.5)" d="M308.77 359.68L296.433 395.073C291.806 396.63 287.438 398.608 282.728 400.002C261.392 406.313 237.955 408.039 216.25 402.32C213.452 401.583 211.001 400.174 208.248 399.375C209.543 398.701 210.679 398.436 212.092 398.169L226.289 399.119C256.559 398.62 288.094 381.163 308.77 359.68Z"/>
	<path fill="#745732" transform="scale(0.5 0.5)" d="M454.83 874.31C459.023 874.89 462.591 874.217 466.585 872.966C460.972 893.31 458.328 913.561 457.726 934.632C457.36 947.419 457.661 960.883 459.693 973.517L448.452 969.315L448.541 967.996C448.672 965.555 447.792 962.67 447.4 960.238L445.381 945.085C443.248 921.718 446.94 896.383 454.83 874.31Z"/>
	<path fill="#A7B3BC" transform="scale(0.5 0.5)" d="M664.931 528.002C666.889 543.222 670.449 558.643 673.953 573.577C680.379 600.971 687.737 627.698 697.75 654.034C704.305 671.275 711.972 688.135 720.5 704.492L727.737 717.866C727.999 718.362 729.383 720.587 729.382 721.009C729.38 721.852 724.857 728.01 724.123 729.041C722.062 726.69 720.533 723.262 719.036 720.5L710.716 704.823C692.49 668.477 680.754 628.135 672.698 588.361C669.691 573.515 668.319 558.086 664.53 543.44C664.496 538.386 664.078 532.99 664.931 528.002Z"/>
	<defs>
		<linearGradient id="gradient_4" gradientUnits="userSpaceOnUse" x1="368.2475" y1="196.95457" x2="330.88019" y2="213.46577">
			<stop offset="0" stop-color="#646466"/>
			<stop offset="1" stop-color="#828181"/>
		</linearGradient>
	</defs>
	<path fill="url(#gradient_4)" transform="scale(0.5 0.5)" d="M329.429 180.217C329.546 173.617 330.366 166.838 331.094 160.273C332.427 148.248 334.392 135.193 339.159 124L339.44 124L339.605 126.626C337.868 137.46 336.285 148.591 335.969 159.566C335.121 189.03 341.219 225.575 359.04 249.897C365.19 258.291 372.803 265.297 380.579 272.142L369.966 279.698C366.158 275.889 361.972 272.112 358.579 267.936C339.175 244.054 329.655 210.624 329.429 180.217Z"/>
	<path fill="#939394" transform="scale(0.5 0.5)" d="M312.639 389.44C313.405 384.629 316.447 380.856 319.774 377.425C325.258 371.77 332.966 369.137 340.449 367.321C356.433 363.442 372.808 363.799 389.051 365.672C395.542 366.42 402.814 368.573 409.25 368.45L409.941 366.791C410.083 371.444 410.416 375.659 411.766 380.146C412.631 383.02 413.747 385.813 414.996 388.541C415.52 389.688 417.001 391.979 417.004 393.177C397.092 383.346 375.843 377.608 353.558 377.452C344.656 377.39 335.971 378.013 327.456 380.829C321.838 382.687 317.281 385.888 312.639 389.44Z"/>
	<path fill="#18191A" transform="scale(0.5 0.5)" d="M765.015 795.761L779.715 761.809L797.018 772.049L804.78 777.234C806.102 778.146 807.722 779.594 809.251 780.012C807.802 787.471 804.547 794.655 801.683 801.662C799.559 806.857 797.636 812.35 795.076 817.339L765.015 795.761Z"/>
	<defs>
		<linearGradient id="gradient_5" gradientUnits="userSpaceOnUse" x1="162.62816" y1="893.97931" x2="222.55937" y2="827.81366">
			<stop offset="0" stop-color="#A46D37"/>
			<stop offset="1" stop-color="#FFFDCE"/>
		</linearGradient>
	</defs>
	<path fill="url(#gradient_5)" transform="scale(0.5 0.5)" d="M167.44 803.735C167.934 803.264 168.919 802.559 169.25 802.007C169.614 801.401 169.709 799.477 169.785 798.748C170.139 795.337 170.27 791.886 170.849 788.504L172.75 787.963C174.541 787.259 176.007 787.262 177.917 787.206C176.67 802.187 178 818.457 180.363 833.266L183.683 851.452L189.498 874.11C195.622 895.413 204.144 916.844 215.746 935.751L206.897 932.445C206.033 932.139 204.154 931.739 203.46 931.245C202.858 930.817 201.888 928.562 201.418 927.753C197.541 921.091 193.995 914.335 190.842 907.297C186 896.489 181.96 885.163 178.304 873.905C176.165 867.319 173.666 859.995 172.727 853.132C169.396 836.663 167.574 820.532 167.44 803.735Z"/>
	<path fill="#FEFEFE" transform="scale(0.5 0.5)" d="M312.639 389.44L307.577 394.612C309.47 386.441 313.282 363.076 320.169 358.2C324.262 355.302 329.289 353.294 334.037 351.752C356.954 344.309 383.306 349.948 406.497 353.68L410.712 354.781C411.429 354.956 411.184 354.89 411.861 355.421C410.862 359.1 410.018 362.968 409.941 366.791L409.25 368.45C402.814 368.573 395.542 366.42 389.051 365.672C372.808 363.799 356.433 363.442 340.449 367.321C332.966 369.137 325.258 371.77 319.774 377.425C316.447 380.856 313.405 384.629 312.639 389.44Z"/>
	<path fill="#18191A" transform="scale(0.5 0.5)" d="M675.337 416.387C664.26 391.794 661.288 365.404 653.147 339.941L659.25 347.152C660.149 347.105 660.376 347.206 661.176 347.547C661.528 348.975 661.909 349.746 662.759 350.947C662.102 353.718 662.298 354.99 663.25 357.625C668.506 372.181 675.634 392.682 690.5 399.926C705.906 407.434 724.719 407.634 741.459 406.855C745.605 406.662 749.988 405.751 754.095 405.922L754.178 406.217C756.861 406.583 759.303 405.356 762 405.75C761.651 405.812 761.334 405.852 761 406C760.108 406.396 759.588 406.872 758.587 407.055L758.003 407.125L758.25 407.621C763.704 406.085 769.899 403.422 775.628 403.893L755.633 410.911C740.201 417.083 721.231 419.065 704.757 419.688C700.983 419.83 681.259 419.104 679.032 420.417C678.204 420.417 678.505 420.485 677.755 420.233C676.861 419.932 675.823 417.318 675.337 416.387Z"/>
	<path fill="#424346" transform="scale(0.5 0.5)" d="M675.337 416.387C683.229 415.62 691.483 416.132 699.432 416.091C709.898 416.037 720.561 415.415 730.955 414.2L746.255 411.867C747.757 411.564 752.436 409.908 753.75 410.185C754.408 410.324 755.005 410.669 755.633 410.911C740.201 417.083 721.231 419.065 704.757 419.688C700.983 419.83 681.259 419.104 679.032 420.417C678.204 420.417 678.505 420.485 677.755 420.233C676.861 419.932 675.823 417.318 675.337 416.387Z"/>
	<defs>
		<linearGradient id="gradient_6" gradientUnits="userSpaceOnUse" x1="763.8053" y1="897.90485" x2="740.58942" y2="876.12524">
			<stop offset="0" stop-color="#A77F48"/>
			<stop offset="1" stop-color="#DEAC69"/>
		</linearGradient>
	</defs>
	<path fill="url(#gradient_6)" transform="scale(0.5 0.5)" d="M803.802 808.367L804.514 808.499L805.347 808.348L810.375 814.747C810.078 815.358 809.671 815.92 809.378 816.5L809 817.75L808.255 818.25L808.25 819C807.864 821.69 805.197 825.446 804 828C803.655 828.737 803.323 829.33 802.878 830C802.516 830.544 802.275 831.11 802.012 831.703L802.753 832.037C801.192 835.89 798.663 839.737 796.604 843.362L779.416 871.379C760.91 900.062 739.525 926.884 715.547 951.206L709.988 956.779C709.405 957.359 708.225 958.875 707.528 959.214C705.896 960.009 702.643 960.179 700.817 960.457L690.651 962.408L724.273 929.193C740.358 911.713 754.384 892.32 767.71 872.707C773.236 864.573 778.916 856.549 783.81 848.008C791.219 835.079 797.092 821.621 803.802 808.367Z"/>
	<path fill="#C06500" transform="scale(0.5 0.5)" d="M581.826 573.211C582.221 572.467 587.274 570.249 588.383 569.57C593.639 566.35 598.403 562.598 603.296 558.878C598.193 576.852 589.73 591.41 576.018 604.238C587.939 598.117 598.745 592.036 609.046 583.294C612.604 580.275 616.006 576.908 619.151 573.462L626.005 565.358C626.811 564.36 627.454 563.123 628.664 562.669C617.733 580.379 601.544 596.98 583.281 607.029C577.183 610.385 570.86 613.332 564.461 616.064C555.917 619.712 546.543 623.356 540.027 630.242C537.015 633.426 535.183 636.923 532.733 640.452C534.982 629.164 536.489 616.775 542.013 606.541C546.893 597.501 555.649 590.198 564.064 584.565C566.663 582.826 581.445 574.957 581.826 573.211Z"/>
	<defs>
		<linearGradient id="gradient_7" gradientUnits="userSpaceOnUse" x1="581.06866" y1="153.08371" x2="678.57239" y2="201.72343">
			<stop offset="0" stop-color="#5E5D5D"/>
			<stop offset="1" stop-color="#7B7B7C"/>
		</linearGradient>
	</defs>
	<path fill="url(#gradient_7)" transform="scale(0.5 0.5)" d="M636.658 81.482C635.531 79.7473 634.983 77.3583 634.233 75.4151C631.684 68.8132 629.75 62.9812 628.635 55.9397L636.965 72.2767L637.228 76.5C637.321 77.8498 638.408 79.6927 638.767 81.1272C642.654 89.7156 645.63 98.3423 648.763 107.206C664.456 151.608 672.474 202.554 655.298 247.758C649.856 262.079 642.437 274.692 630.762 284.799C627.241 287.847 623.497 290.881 619.235 292.831L612.999 283.363C616.259 280 620.051 277.032 623.448 273.781C632.983 264.657 640.954 253.964 646.537 241.972C659.486 214.164 658.397 181.518 654.184 151.861C650.769 127.825 644.982 104.3 636.658 81.482Z"/>
	<defs>
		<linearGradient id="gradient_8" gradientUnits="userSpaceOnUse" x1="391.28778" y1="316.10583" x2="370.91208" y2="292.72015">
			<stop offset="0" stop-color="#A19A99"/>
			<stop offset="1" stop-color="#97A3AD"/>
		</linearGradient>
	</defs>
	<path fill="url(#gradient_8)" transform="scale(0.5 0.5)" d="M338.615 347.93C336.912 349.462 333.112 350.028 330.903 350.831C328.189 351.818 325.665 353.106 323.106 354.434C328.055 343.174 334.087 332.62 341.311 322.648C355.043 303.69 374.965 285.736 396.64 276.615C408.989 271.419 422.229 268.573 435.407 266.435C438.511 266.951 441.429 266.933 444.562 266.942C444.944 266.943 446.995 266.797 447.25 266.946C447.335 266.996 448.51 268.266 448.542 268.312L448.745 268.851L448.277 269.33C437.407 270.765 426.54 272.594 415.926 275.378C411.559 276.524 406.907 277.58 402.883 279.676L402.853 279.737C402.083 281.65 392.687 287.781 390.372 289.968C386.526 293.6 383.327 297.928 380.14 302.128C370.075 315.389 363.685 328.834 359.958 345.078C356.953 345.589 353.932 345.503 350.909 345.817C346.734 346.25 342.707 347.015 338.615 347.93Z"/>
	<path fill="#323030" transform="scale(0.5 0.5)" d="M402.853 279.737C402.083 281.65 392.687 287.781 390.372 289.968C386.526 293.6 383.327 297.928 380.14 302.128C370.075 315.389 363.685 328.834 359.958 345.078C356.953 345.589 353.932 345.503 350.909 345.817C346.734 346.25 342.707 347.015 338.615 347.93L338.911 347.202C347.911 325.406 362.434 301.657 382.81 289.044C389.122 285.137 396.036 282.6 402.853 279.737Z"/>
	<path fill="#323030" transform="scale(0.5 0.5)" d="M662.759 350.947C683.678 376.47 711.329 392.924 744.422 396.293C760.231 397.903 775.007 395.342 790.164 390.959C794.789 389.622 799.938 387.356 804.638 386.609C804.366 387.198 804.041 388.278 803.648 388.75C802.997 389.532 801.676 389.644 801.546 390.757C802.539 390.51 803.322 390.173 804.25 389.755L804.745 390.25C803.693 391.079 802.111 392.406 800.8 392.716C797.992 392.884 794.595 395.497 792.015 396.728C791.499 396.973 790.143 397.778 789.645 397.778L775.628 403.893C769.899 403.422 763.704 406.085 758.25 407.621L758.003 407.125L758.587 407.055C759.588 406.872 760.108 406.396 761 406C761.334 405.852 761.651 405.812 762 405.75C759.303 405.356 756.861 406.583 754.178 406.217L754.095 405.922C749.988 405.751 745.605 406.662 741.459 406.855C724.719 407.634 705.906 407.434 690.5 399.926C675.634 392.682 668.506 372.181 663.25 357.625C662.298 354.99 662.102 353.718 662.759 350.947Z"/>
	<path transform="scale(0.5 0.5)" d="M754.095 405.922C759.929 404.378 766.142 404.056 772 402.448C776.89 401.105 781.727 398.188 786.684 397.384C787.668 397.224 788.7 397.519 789.645 397.778L775.628 403.893C769.899 403.422 763.704 406.085 758.25 407.621L758.003 407.125L758.587 407.055C759.588 406.872 760.108 406.396 761 406C761.334 405.852 761.651 405.812 762 405.75C759.303 405.356 756.861 406.583 754.178 406.217L754.095 405.922Z"/>
	<path fill="#C06500" transform="scale(0.5 0.5)" d="M376.147 756.401C393.357 788.754 416.245 818.545 440.607 845.815C445.017 850.75 452.865 856.866 455.023 862.968C451.374 861.954 447.711 860.33 444.174 858.951C434.604 855.219 425.914 851.16 417.658 844.955C410.154 839.315 402.87 832.675 397.008 825.325C384.636 809.809 375.538 787.306 372.792 767.775L373.741 767.251C376.078 763.814 376.083 760.398 376.147 756.401Z"/>
	<defs>
		<linearGradient id="gradient_9" gradientUnits="userSpaceOnUse" x1="347.49655" y1="657.81207" x2="283.67651" y2="630.63135">
			<stop offset="0" stop-color="#E38801"/>
			<stop offset="1" stop-color="#FBA914"/>
		</linearGradient>
	</defs>
	<path fill="url(#gradient_9)" transform="scale(0.5 0.5)" d="M309.268 683.616L306.931 680.034C302.829 672.721 300.608 663.679 298.922 655.5C294.333 633.243 293.379 609.105 299.686 587.063C300.278 588.607 299.473 593.095 299.533 595.021C299.621 597.879 300.074 600.532 300.682 603.315C302.617 612.175 307.675 620.722 314.214 626.988C317.301 629.946 320.544 632.024 323.04 635.593L323.158 636.052C323.894 638.623 325.561 640.222 327.161 642.249C333.305 650.036 340.618 655.994 347.606 662.916C342.886 665.994 337.791 668.644 332.808 671.271C330.602 672.434 328.201 673.33 326.203 674.83C325.572 677.891 325.239 681.037 322.433 682.873C319.356 684.887 315.112 685.088 311.593 684.25L309.268 683.616Z"/>
	<path transform="scale(0.5 0.5)" d="M320.06 667.75C321.567 667.32 321.556 667.361 323 667.991C323.997 669.114 324.671 670.188 324.696 671.75C324.732 673.947 324.142 674.498 322.75 676.024L321.719 676.423L320.574 675.91C319.693 674.856 319.051 673.984 318.796 672.602C318.447 670.707 319.003 669.275 320.06 667.75Z"/>
	<path transform="scale(0.5 0.5)" d="M308.491 663.75C309.726 663.692 310.562 663.92 311.529 664.718C312.701 665.684 313.818 667.437 313.82 669C313.823 671.262 313.207 671.922 311.75 673.44C311.311 673.539 310.693 673.703 310.25 673.676C308.732 673.585 307.785 672.722 306.987 671.5C306.163 670.237 305.902 668.244 306.25 666.79C306.631 665.198 307.202 664.67 308.491 663.75Z"/>
	<path transform="scale(0.5 0.5)" d="M300.292 620.75L301.238 620.655C302.703 620.72 303.691 621.675 304.576 622.75C305.771 624.201 305.571 625.751 305.363 627.5C304.498 628.993 304.022 629.435 302.5 630.25L301.688 630.366C300.417 630.337 299.313 629.489 298.603 628.48C297.773 627.299 297.428 625.679 297.683 624.25C297.99 622.53 298.928 621.698 300.292 620.75Z"/>
	<path transform="scale(0.5 0.5)" d="M303.863 641.75C304.43 641.656 304.727 641.576 305.317 641.615C306.745 641.71 307.877 642.525 308.753 643.618C309.92 645.076 310.033 647.634 309.667 649.373C309.265 651.282 308.302 652.126 306.75 653.185C305.723 653.507 306.147 653.49 305.071 653.362C303.921 653.225 302.892 652.354 302.233 651.409C300.906 649.506 300.383 646.999 301.073 644.75C301.537 643.24 302.557 642.493 303.863 641.75Z"/>
	<path fill="#424346" transform="scale(0.5 0.5)" d="M158.723 821.692L158.074 827.428L143.914 911.043C135.465 908.985 126.914 904.939 118.872 901.608C112.73 899.064 106.16 896.838 100.436 893.439C102.224 892.43 103.849 889.6 105.111 887.916L116.477 872.684L137.542 845.835L158.723 821.692Z"/>
	<path fill="#D8B583" transform="scale(0.5 0.5)" d="M221.692 808.547C220.749 804.175 220.482 799.534 220.087 795.076C218.788 780.412 219.439 766.13 222.709 751.764L235.199 747.513C227.905 764.338 228.301 782.877 230.016 800.767C231.66 809.534 232.797 818.391 234.862 827.08C238.102 840.713 242.855 853.834 247.293 867.093C251.377 875.126 254.481 883.823 258.296 892.027C268.51 913.985 281.066 936.238 296.414 955.013L287.62 953.455C286.663 953.28 284.961 953.183 284.112 952.803C283.734 952.635 282.65 951.065 282.349 950.703L275.691 942.008C264.05 925.508 254.155 907.664 246.133 889.142C243.726 883.584 241.011 877.874 239.196 872.095L239.097 872.031C230.954 852.17 224.247 829.906 221.692 808.547Z"/>
	<path fill="#323030" transform="scale(0.5 0.5)" d="M636.965 72.2767C643.443 83.8394 648.556 96.2128 653.253 108.589C662.655 133.359 669.323 158.225 673.154 184.444C674.382 192.854 675.751 201.348 675.446 209.87C673.739 221.168 672.865 232.864 670.215 243.966C666.848 258.072 660.499 271.096 652.493 283.13C648.18 289.613 642.994 296.28 636.704 300.932C634.118 302.844 631.688 304.033 628.556 304.768L627.278 303.817C626.488 301.495 623.067 299.75 621.346 297.826L621.413 297.286L619.235 292.831C623.497 290.881 627.241 287.847 630.762 284.799C642.437 274.692 649.856 262.079 655.298 247.758C672.474 202.554 664.456 151.608 648.763 107.206C645.63 98.3423 642.654 89.7156 638.767 81.1272C638.408 79.6927 637.321 77.8498 637.228 76.5L636.965 72.2767Z"/>
	<path fill="#323030" transform="scale(0.5 0.5)" d="M364.399 283.845L353.458 292.021C339.789 279.779 330.323 267.116 324.75 249.507C313.437 213.763 320.244 176.627 330.148 141.5C334.536 125.935 339.861 109.821 347.387 95.4811L339.605 126.626L339.44 124L339.159 124C334.392 135.193 332.427 148.248 331.094 160.273C330.366 166.838 329.546 173.617 329.429 180.217C329.655 210.624 339.175 244.054 358.579 267.936C361.972 272.112 366.158 275.889 369.966 279.698L364.399 283.845Z"/>
	<path fill="#424346" transform="scale(0.5 0.5)" d="M364.399 283.845C356.741 277.876 349.964 270.924 344.492 262.876C332.044 244.569 327.615 221.6 327.929 199.756C328.02 193.409 328.227 186.452 329.429 180.217C329.655 210.624 339.175 244.054 358.579 267.936C361.972 272.112 366.158 275.889 369.966 279.698L364.399 283.845Z"/>
	<path fill="#A92D0A" transform="scale(0.5 0.5)" d="M324.006 703.436C335.628 714.242 347.026 725.945 362.876 730.206C363.82 730.46 364.202 730.479 364.959 731.107C363.704 734.975 362.722 739.252 361.107 742.971C359.978 745.572 357.969 748.105 356.381 750.453C352.201 756.637 347.727 762.168 342.593 767.566C338.53 771.427 334.549 774.935 329.854 778.011C324.779 773.888 320.792 769.124 316.677 764.077C315.188 762.25 312.879 759.878 312.374 757.524L312.25 756.853C308.629 738.993 315.179 718.779 324.006 703.436Z"/>
	<path fill="#424346" transform="scale(0.5 0.5)" d="M876.954 826.198C886.136 835.465 895.232 845.725 902.729 856.421C910.718 867.818 917.389 880.141 923.473 892.639C912.404 899.083 899.614 904.14 887.703 908.831C883.454 910.504 879.025 911.952 874.879 913.855L876.689 896.621C877.82 877.938 874.846 859.886 869.576 842.01L876.954 826.198Z"/>
	<path fill="#C06500" transform="scale(0.5 0.5)" d="M495.906 621.933L500.554 630.025C506.3 641.766 508.481 655.997 503.95 668.5C500.289 678.605 492.968 685.704 483.335 690.244C454.006 704.068 421.297 692.564 392.53 682.841L369.98 675.641L367.23 662.43C367.148 662.011 366.434 658.999 366.526 658.797C366.67 658.479 369.508 657.841 370.5 657.491C377.459 655.043 384.475 651.944 390.901 648.322C407.409 639.015 419.337 623.958 429.722 608.492L429.841 609.256C430.056 611.182 427.995 614.345 427.121 616.05C420.624 628.732 412.488 641.327 402.813 651.813C396.568 658.581 388.588 660.469 380.083 662.795C386.81 666.366 394.162 668.833 401.29 671.494C424.708 680.233 453.375 690.027 478.299 682.539C485.338 680.425 489.943 677.719 493.446 671C499.142 660.078 501.072 646.306 498.764 634.277C497.966 630.114 496.157 626.159 495.906 621.933Z"/>
	<path fill="#18191A" transform="scale(0.5 0.5)" d="M869.576 842.01C874.846 859.886 877.82 877.938 876.689 896.621L874.879 913.855C869.483 916.428 863.584 918.274 857.98 920.347L810.546 936.168L869.576 842.01Z"/>
	<path fill="#C06500" transform="scale(0.5 0.5)" d="M260.932 252.421L261.132 252.899C263.326 258.315 264.037 264.967 265.587 270.676C267.119 276.317 268.984 282.251 271.693 287.445C278.741 300.959 290.395 310.415 304.247 316.361C311.692 319.558 320.167 321.721 328.242 322.37C324.347 327.704 320.537 333.154 316.064 338.027C307.412 347.451 297.347 354.842 286.668 361.782C282.927 355.795 279.049 349.947 275.84 343.645C264.213 320.807 258.707 295.719 259.684 270.112C259.905 264.323 259.904 258.112 260.932 252.421Z"/>
	<path fill="#2E2010" transform="scale(0.5 0.5)" d="M371.21 741.34L374.003 732.265L374.545 732.098C377.293 731.228 379.74 729.891 382.335 728.668C384.617 730.179 386.523 731.602 388.281 733.75C394.969 741.92 399.423 752.17 404.164 761.544L424.039 802.917L427.532 811.568C428.16 813.287 428.644 815.399 429.881 816.75C429.709 812.664 427.64 808.801 426.746 804.841C423.865 792.084 420.393 778.319 419.312 765.325C420.056 766.224 420.736 767.068 421.677 767.775L421.798 767.773L433.612 808.013C440.021 827.183 447.799 845.323 456.229 863.661L455.023 862.968C452.865 856.866 445.017 850.75 440.607 845.815C416.245 818.545 393.357 788.754 376.147 756.401C374.573 751.769 373.536 745.451 371.21 741.34Z"/>
	<path fill="#323030" transform="scale(0.5 0.5)" d="M591.553 286.233C598.759 289.603 607.689 292.663 614.192 297.223C614.851 298.965 617.637 300.361 619.01 301.64C629.874 320.486 631.118 344.444 629.854 365.709C629.561 370.634 629.419 376.356 628.224 381.133L627.88 382.203C616.838 375.405 604.766 369.57 592.497 365.392C593.704 362.959 594.032 358.778 594.545 356.064C598.916 332.943 597.201 308.933 591.553 286.233Z"/>
	<path fill="#323030" transform="scale(0.5 0.5)" d="M361.977 946.84C362.65 946.966 363.88 947.974 364.485 948.354L371.811 952.987C379.527 957.751 387.513 962.162 395.842 965.761L375.292 963.916L346.889 959.899C332.608 957.818 318.031 955.665 304.042 952.088C298.431 946.079 293.756 939.154 289.148 932.367C278.698 916.976 270.167 900.943 262.367 884.069C254.814 867.731 248.099 850.578 243.559 833.127C239.236 816.509 236.897 799.487 235.938 782.363C239.422 781.064 242.874 779.304 246.528 778.589C244.178 787.582 245.625 797.601 246.907 806.636C251.012 835.547 259.324 866.069 274.14 891.414C279.01 899.745 284.445 908.363 290.924 915.537C302.662 928.534 318.686 937.768 335.575 942.216L352.802 945.921C355.78 946.427 358.947 947.099 361.977 946.84Z"/>
	<path fill="#C06500" transform="scale(0.5 0.5)" d="M739.474 233.24C741.652 239.802 742.7 246.916 743.802 253.739C748.275 281.418 748.199 311.449 735.468 337.193C730.648 346.941 722.558 358.502 711.821 362.247C706.798 363.999 701.252 364.629 696 363.673L695.13 363.522C684.119 361.507 673.817 353.995 666.295 346.053C673.021 340.106 677.82 334.268 682.833 326.85C685.173 327.839 687.613 328.685 690.135 329.053C697.636 330.149 705.875 326.995 711.722 322.45C732.863 306.013 738.184 280.013 739.1 254.58C739.345 247.749 738.435 240.533 739.387 233.797L739.474 233.24Z"/>
	<path fill="#686868" transform="scale(0.5 0.5)" d="M402.853 279.737L402.883 279.676C406.907 277.58 411.559 276.524 415.926 275.378C426.54 272.594 437.407 270.765 448.277 269.33L445.348 273.054C440.384 278.139 436.102 284.456 431.999 290.267C425.664 299.239 419.194 308.633 414.235 318.438C410.462 325.899 408.516 336.334 402.762 342.471C399.129 346.347 395.127 346.761 390.132 347.052C380.108 346.071 370.051 344.69 359.958 345.078C363.685 328.834 370.075 315.389 380.14 302.128C383.327 297.928 386.526 293.6 390.372 289.968C392.687 287.781 402.083 281.65 402.853 279.737Z"/>
	<path transform="scale(0.5 0.5)" d="M392.396 306.061C394.993 305.87 398.073 306.348 400.341 307.677C403.661 309.622 406.325 312.582 407.25 316.394C408.387 321.082 408.294 327.304 405.511 331.403C402.844 335.331 399.258 336.622 394.828 337.445C392.563 337.186 390.12 336.982 388 336.093C384.596 334.666 381.6 331.75 380.214 328.313C378.604 324.32 378.884 319.227 380.793 315.375C383.318 310.28 387.147 307.714 392.396 306.061Z"/>
	<path fill="#C06500" transform="scale(0.5 0.5)" d="M405.003 315.881C405.406 319.698 405.235 323.657 402.725 326.8C400.95 329.022 397.547 330.348 394.75 330.507C391.173 330.711 387.982 330.262 385.14 327.857L383.322 325.944C387.806 324.632 392.547 327.002 396.995 325.122C399.571 324.034 401.825 321.678 402.75 319.021C403.226 317.654 403.582 317.225 404.632 316.228L405.003 315.881Z"/>
	<path fill="#FEBD2B" transform="scale(0.5 0.5)" d="M383.322 325.944L382.619 324.75C381.319 322.256 381.059 318.921 381.975 316.25C383.114 312.924 386.07 310.235 389.173 308.719C392.453 307.116 394.706 307.096 398 308.419C401.501 309.825 403.483 312.592 405.003 315.881L404.632 316.228C403.582 317.225 403.226 317.654 402.75 319.021C401.825 321.678 399.571 324.034 396.995 325.122C392.547 327.002 387.806 324.632 383.322 325.944Z"/>
	<path fill="#AE8F64" transform="scale(0.5 0.5)" d="M191.609 870.448C195.749 872.249 200.362 873.152 204.72 874.308L227.404 880.25C231.596 881.313 236.09 883.109 240.38 883.563C250.139 907.415 263.073 931.91 279.431 951.92L220.199 936.706C213.908 928.161 209.492 918.641 205.341 908.92C199.971 896.343 195.41 883.59 191.609 870.448Z"/>
	<path fill="#424346" transform="scale(0.5 0.5)" d="M246.528 778.589L247.789 778.25C249.105 780.036 249.51 783.908 250.027 786.12L253.966 802.893L254.225 803.298C256.088 806.307 256.641 810.051 257.887 813.364C261.094 821.893 264.288 830.372 268.265 838.586C284.657 872.444 310.069 902.478 337.305 928.189L361.977 946.84C358.947 947.099 355.78 946.427 352.802 945.921L335.575 942.216C318.686 937.768 302.662 928.534 290.924 915.537C284.445 908.363 279.01 899.745 274.14 891.414C259.324 866.069 251.012 835.547 246.907 806.636C245.625 797.601 244.178 787.582 246.528 778.589Z"/>
	<path fill="#323030" transform="scale(0.5 0.5)" d="M253.966 802.893L254.225 803.298C256.088 806.307 256.641 810.051 257.887 813.364C261.094 821.893 264.288 830.372 268.265 838.586C284.657 872.444 310.069 902.478 337.305 928.189C332.116 927.31 326.336 921.002 322.519 917.398C311.235 906.739 301.622 895.058 291.75 883.135C286.609 876.927 281.091 870.837 276.704 864.062C273.456 859.046 270.865 853.543 268.345 848.137C263.446 837.628 259.175 826.769 256.351 815.509C255.309 811.353 254.088 807.196 253.966 802.893Z"/>
	<path fill="#AE8F64" transform="scale(0.5 0.5)" d="M783.169 870.956C787.649 872.905 791.997 875.081 796.625 876.68C805.085 879.603 813.718 881.1 822.614 881.881L797.489 916.689L778.831 939.676C777.212 941.574 775.298 944.504 773.391 946.03C771.45 947.582 765.21 948.106 762.485 948.701C745.617 952.381 728.444 956.481 711.344 958.748C727.571 942.968 743.227 925.859 757.137 907.987L783.169 870.956Z"/>
	<path fill="#323030" transform="scale(0.5 0.5)" d="M316.354 578.014C320.133 576.511 323.965 575.053 328.003 574.416L328.75 574.305C329.813 574.122 330.659 573.975 331.75 574.144C334.116 574.512 336.412 575.618 338.78 576.101C344.658 577.301 350.791 577.754 356.771 578.107C376.974 579.301 397.401 579.157 417.526 577.183L418.672 578.026C422.896 580.908 424.9 584.933 427.011 589.444C423.274 596.085 418.351 605.151 412.25 609.788C408.122 612.925 402.013 614.864 397.131 616.495C395.71 609.786 393.557 600.937 387.164 597.107C386.629 596.787 386.078 596.635 385.5 596.426L384.91 596.195C381.884 595.1 378.667 596.124 375.787 595.257L375.723 594.688C372.338 594.547 368.41 595.454 365.858 597.846C362.847 600.668 362.389 604.131 362.421 608.078C362.434 609.612 362.52 611.012 362.892 612.5L363.057 613.183C364.789 620.092 371.815 631.094 378.098 634.836C379.822 635.862 385.12 634.372 387.096 633.817L387.396 633.723C385.968 637.157 383.255 638.116 380 639.443C374.581 641.653 368.548 643.203 362.791 644.28C358.65 634.56 355.641 624.706 353.122 614.459C351.912 609.533 351.177 604.355 349.571 599.557C349.613 603.693 350.496 608.2 350.976 612.344L355.315 642.602C346.305 640.775 336.179 636.394 328.391 631.57C332.191 631.274 334.03 630.985 337.006 628.523C338.026 629.109 339.078 628.994 340.233 629.043L340.912 627.933L340.19 627.433C340.164 625.471 339.973 624.402 339.034 622.667L339.103 615.96C339.155 609.368 337.226 603.155 333.011 598.097L329.968 596.996C325.723 595.222 320.096 594.338 315.691 596.087C313.985 596.765 312.548 597.919 311.078 598.994L310.362 595.25C309.779 591.976 307.842 582.335 309.635 579.749C311.848 579.682 314.229 578.662 316.354 578.014Z"/>
	<path transform="scale(0.5 0.5)" d="M333.011 598.097C335.059 598.473 336.311 599.718 337.56 601.416C341.916 607.339 342.188 620.878 340.912 627.933L340.19 627.433C340.164 625.471 339.973 624.402 339.034 622.667L339.103 615.96C339.155 609.368 337.226 603.155 333.011 598.097Z"/>
	<path fill="#424346" transform="scale(0.5 0.5)" d="M316.354 578.014C320.133 576.511 323.965 575.053 328.003 574.416L328.75 574.305C329.813 574.122 330.659 573.975 331.75 574.144C334.116 574.512 336.412 575.618 338.78 576.101C344.658 577.301 350.791 577.754 356.771 578.107C376.974 579.301 397.401 579.157 417.526 577.183L418.672 578.026L419.499 580.636C420.473 584.176 420.565 589.734 418.559 592.923C415.804 597.303 408.522 600.078 403.694 601.197C398.398 599.578 394.593 596.647 389.791 594.126C383.121 590.625 375.103 588.76 367.731 587.392L328.375 581.07C324.509 580.346 319.632 580.251 316.354 578.014Z"/>
	<path fill="#C06500" transform="scale(0.5 0.5)" d="M531.883 607.469C528.369 617.4 526.748 627.036 524.832 637.337C522.567 649.521 520.682 663.429 515.616 674.812C507.421 693.227 484.666 705.051 467.328 713.336C455.808 718.841 444.675 722.326 431.803 722.019C428.807 721.947 424.028 720.652 421.312 721.152C419.883 721.416 417.873 722.888 416.5 723.541C408.779 727.214 401.659 728.375 393.5 725.399C388.873 723.711 384.625 721.218 380.433 718.667C375.423 721.812 371.658 724.308 365.5 722.871C351.789 719.673 340.71 709.588 330.31 700.642L330.909 700.416C333.106 699.561 335.267 698.435 337.027 696.835C344.495 691.318 354.127 685.781 363 683.044L363.729 682.814C366.086 682.142 368.667 683.08 370.987 683.609C381.385 685.976 391.315 690.184 401.376 693.656C408.951 696.271 416.582 698.871 424.359 700.821C434.068 703.255 444.089 704.417 454.094 704.556C460.764 704.54 467.657 703.859 474.081 701.996C488.193 697.902 502.289 689.884 509.54 676.645C517.068 662.899 514.113 646.883 510.024 632.613C513.773 628.751 517.646 625.143 521.08 620.973C524.619 616.674 527.626 611 531.883 607.469Z"/>
	<path fill="#E08500" transform="scale(0.5 0.5)" d="M337.027 696.835C344.495 691.318 354.127 685.781 363 683.044L363.729 682.814C366.086 682.142 368.667 683.08 370.987 683.609C381.385 685.976 391.315 690.184 401.376 693.656C408.951 696.271 416.582 698.871 424.359 700.821C434.068 703.255 444.089 704.417 454.094 704.556C452.799 706.405 450.566 707.266 448.543 708.12C440.535 711.504 428.994 713.961 420.402 714.022C417.198 714.045 415.441 712.283 412.611 711.77C411.49 711.567 408.38 713.017 407.206 713.413C393.62 717.995 385.905 710.151 374.596 704.551C373.426 706.559 372.244 708.811 370.366 710.257C368.033 712.053 365.095 712.15 362.316 711.666C354.115 710.238 341.739 703.665 337.027 696.835Z"/>
	<path fill="#FEFEFE" transform="scale(0.5 0.5)" d="M448.452 969.315C409.234 953.982 373.888 932.392 342.144 904.745C330.092 894.248 318.551 883.231 308.217 871.019C288.77 848.039 271.482 822.624 261.317 794.101C257.32 782.887 254.296 771.662 255.345 759.646C257.166 738.785 268.595 719.068 281.382 703.004C286.695 696.33 292.425 689.714 298.993 684.249C300.059 686.561 301.671 688.495 303.206 690.509L300.861 693.195C293.545 702.069 289.747 712.37 290.848 723.913C292.038 736.385 297.656 747.866 304.044 758.472C312.651 772.761 323.58 785.568 335.409 797.278C360.775 822.388 391.47 842.677 424.429 856.422C433.631 860.259 443.095 863.559 452.69 866.266L462.25 868.72C463.908 869.082 466.207 869.164 467.529 870.25L466.585 872.966C462.591 874.217 459.023 874.89 454.83 874.31L418.667 861.178C383.137 846.561 351.476 827.146 324.637 799.371C312.319 786.623 301.009 772.25 293.298 756.212C285.456 739.9 283.058 723.278 289.225 705.948L289.536 705.095C278.396 713.294 270.896 724.555 265.055 737C262.619 742.191 260.253 747.619 259.413 753.331C258.425 760.056 259.763 766.718 261.319 773.25C268.277 802.475 285.236 830.389 303.146 854.156C309.009 861.936 315.623 869.027 322.289 876.111C351.915 907.594 387.569 932.822 424.828 954.5C432.529 958.981 440.415 964.452 448.541 967.996L448.452 969.315Z"/>
	<defs>
		<linearGradient id="gradient_10" gradientUnits="userSpaceOnUse" x1="244.339" y1="879.93945" x2="181.33353" y2="770.0285">
			<stop offset="0" stop-color="#EBB569"/>
			<stop offset="1" stop-color="white"/>
		</linearGradient>
	</defs>
	<path fill="url(#gradient_10)" transform="scale(0.5 0.5)" d="M185.558 845.041C182.842 832.077 181.369 818.969 180.856 805.743C180.368 793.136 180.622 781.171 183.715 768.851L219.776 753.258C214.451 776.391 216.384 800.278 221.339 823.326L222.368 828.248L240.38 883.563C236.09 883.109 231.596 881.313 227.404 880.25L204.72 874.308C200.362 873.152 195.749 872.249 191.609 870.448L186.654 849.851L185.558 845.041Z"/>
	<defs>
		<linearGradient id="gradient_11" gradientUnits="userSpaceOnUse" x1="844.97119" y1="872.00586" x2="803.05286" y2="770.58405">
			<stop offset="0" stop-color="#EEC181"/>
			<stop offset="1" stop-color="#FFF8E1"/>
		</linearGradient>
	</defs>
	<path fill="url(#gradient_11)" transform="scale(0.5 0.5)" d="M819.919 802.15L833.911 757.626L858.411 773.716L868.904 781.007L859.843 809.847C850.504 835.096 837.299 859.374 822.614 881.881C813.718 881.1 805.085 879.603 796.625 876.68C791.997 875.081 787.649 872.905 783.169 870.956L819.919 802.15Z"/>
	<defs>
		<linearGradient id="gradient_12" gradientUnits="userSpaceOnUse" x1="568.06158" y1="360.14502" x2="566.68732" y2="471.23434">
			<stop offset="0" stop-color="#929191"/>
			<stop offset="1" stop-color="#ADADAE"/>
		</linearGradient>
	</defs>
	<path fill="url(#gradient_12)" transform="scale(0.5 0.5)" d="M476.532 357.943C530.058 348.498 586.67 357.312 631.712 388.855C645.016 398.172 657.807 411.022 664.711 425.926C666.979 429.45 668.661 433.748 670.159 437.66C673.41 446.146 674.989 456.895 672.735 465.794C671.656 470.053 669.65 474.144 667.877 478.154C668.188 474.918 668.541 471.734 668.194 468.489C667.636 463.268 666.532 458.4 664.513 453.532C657.772 437.279 643.008 424.315 628.995 414.379C617.39 406.151 605.532 399.171 592.341 393.759C557.822 379.598 520.363 374.412 484 384.525C475.558 386.873 467.498 390.236 459.427 393.6C460.809 391.253 462.618 389.21 463.972 386.847C469.007 378.053 470.152 369.175 471.38 359.337L476.532 357.943Z"/>
	<path fill="#FEFEFE" transform="scale(0.5 0.5)" d="M476.532 357.943C530.058 348.498 586.67 357.312 631.712 388.855C645.016 398.172 657.807 411.022 664.711 425.926L664.489 425.99L663.892 426.171C651.098 411.034 635.371 398.621 618.274 388.667C591.693 373.192 561.073 366.415 530.624 364.791C511.812 363.787 493.027 364.735 474.755 369.57C474.537 368.586 474.992 367.151 475.181 366.137C475.692 363.391 476.244 360.729 476.532 357.943Z"/>
	<path fill="#FEFEFE" transform="scale(0.5 0.5)" d="M413.573 378.592C411.566 371.926 412.29 364.189 413.685 357.455C419.887 327.52 433.819 298.486 451.158 273.434C455.472 267.201 460.756 259.391 467.302 255.37C476.647 249.63 502.309 251.108 513.057 253.528L526.53 257.16L525.849 257.231C513.764 258.645 503.97 269.447 497.004 278.527C483.613 295.981 472.693 320.005 469.07 341.75C466.759 355.618 469.217 373.694 461.363 385.891C454.846 396.011 443.211 401.599 432.782 406.739C428.278 402.661 423.472 398.671 419.92 393.701C416.88 389.449 414.801 383.636 413.573 378.592Z"/>
	<path fill="#939394" transform="scale(0.5 0.5)" d="M513.057 253.528L526.53 257.16L525.849 257.231C513.764 258.645 503.97 269.447 497.004 278.527C483.613 295.981 472.693 320.005 469.07 341.75C466.759 355.618 469.217 373.694 461.363 385.891C454.846 396.011 443.211 401.599 432.782 406.739C428.278 402.661 423.472 398.671 419.92 393.701C416.88 389.449 414.801 383.636 413.573 378.592L414.116 377.866C415.441 375.932 415.532 372.697 415.867 370.405L418.223 356.967C419.819 365.813 420.871 374.028 426.201 381.592C427.323 383.184 429.09 385.455 430.722 386.509C432.182 387.451 433.878 387.643 435.546 387.171C437.058 386.743 437.685 385.848 438.391 384.5C438.977 383.383 439.109 382.374 438.75 381.165L436.009 380.735C434.707 380.041 433.299 379.281 432.162 378.337C428.472 375.273 426.622 370.418 426.082 365.771C425.184 358.036 427.375 352.919 432.071 346.93L432.25 345.008C433.594 343.543 435.62 342.501 437.435 341.711C443.374 339.124 448.852 340.567 454.618 342.709C460.978 325.475 468.65 308.608 477.658 292.596C482.914 283.254 488.623 273.695 496.201 266.021C501.382 260.773 506.908 257.405 513.057 253.528Z"/>
	<path transform="scale(0.5 0.5)" d="M432.071 346.93C436.119 343.751 439.144 342.563 444.41 343.218C447.24 343.57 449.75 344.652 451.488 347C454.421 350.962 455.437 357.901 454.474 362.646C453.255 368.645 449.287 374.749 444.174 378.124C441.474 379.906 439.22 380.609 436.009 380.735C434.707 380.041 433.299 379.281 432.162 378.337C428.472 375.273 426.622 370.418 426.082 365.771C425.184 358.036 427.375 352.919 432.071 346.93Z"/>
	<path fill="#939394" transform="scale(0.5 0.5)" d="M428.338 359.078C429.847 361.547 432.013 365.673 435 366.369C437.387 366.924 440.925 366.272 442.961 364.919C446.921 362.288 449.12 358.401 450.042 353.814C450.362 358.812 449.718 362.887 446.25 366.799C444.005 369.332 441.775 370.197 438.428 370.311C435.547 370.409 433.062 369.418 431.071 367.312C428.94 365.059 428.493 362.052 428.338 359.078Z"/>
	<path fill="#FEFEFE" transform="scale(0.5 0.5)" d="M428.338 359.078C428.601 355.619 429.872 352.451 432.068 349.762C434.373 346.939 437.738 344.665 441.45 344.431C444.013 344.269 446.026 344.713 447.878 346.551C450.1 348.757 450.072 350.864 450.042 353.814C449.12 358.401 446.921 362.288 442.961 364.919C440.925 366.272 437.387 366.924 435 366.369C432.013 365.673 429.847 361.547 428.338 359.078Z"/>
	<path fill="#DE4B14" transform="scale(0.5 0.5)" d="M210.037 747.954C209.725 742.648 211.038 736.892 211.987 731.688C215.238 713.854 219.269 695.963 225.249 678.828C235.121 650.54 250.107 623.092 268.352 599.31C273.51 592.587 279.279 586.18 284.913 579.848C293.885 569.765 303.38 558.665 314.545 550.961L313.64 563.334C308.788 566.34 305.422 569.568 302.059 574.211C301.455 575.046 301.278 575.064 300.406 575.465C295.383 577.774 292.08 585.657 290.341 590.593C287.759 597.917 287.299 605.568 286.964 613.25C286.099 633.076 287.641 655.413 294.864 674.054C295.057 674.553 296.101 676.987 295.926 677.284C295.398 678.18 293.104 679.735 292.266 680.509L283.558 689.25C276.344 696.865 270.202 705.24 264.471 714C258.829 722.624 253.43 731.798 250.671 741.799C248.717 740.58 244.779 737.38 242.587 737.069C241.491 736.913 239 737.675 237.869 737.935C228.466 740.091 219.046 744.522 210.037 747.954Z"/>
	<path fill="#FEBD2B" transform="scale(0.5 0.5)" d="M682.833 326.85C689.429 316.223 694.602 304.546 697.575 292.385C706.626 255.373 699.132 214.25 690.259 177.915C687.044 164.749 683.774 151.885 679.225 139.082C672.807 121.016 664.564 103.058 655.714 86.0615C651.368 77.7137 646.579 69.2679 641.324 61.449C638.233 56.8495 634.785 52.6493 631.888 47.9001C636.802 51.6964 641.25 56.9143 645.635 61.3698C657.667 73.595 667.715 86.5737 677.631 100.519C683.773 109.157 689.941 117.979 695.34 127.1C697.023 129.942 698.059 132.94 699.627 135.827C709.941 154.82 718.843 174.279 726.663 194.423C731.598 207.132 736.355 219.948 739.474 233.24L739.387 233.797C738.435 240.533 739.345 247.749 739.1 254.58C738.184 280.013 732.863 306.013 711.722 322.45C705.875 326.995 697.636 330.149 690.135 329.053C687.613 328.685 685.173 327.839 682.833 326.85Z"/>
	<path fill="#FEFEFE" transform="scale(0.5 0.5)" d="M668.894 94.25C669.655 94.4135 669.811 94.6547 670.286 95.2522C673.377 99.1347 675.584 104.274 678.296 108.494C681.097 112.854 684.077 117.096 686.538 121.665C690.388 128.812 693.461 136.468 696.705 143.908C699.25 149.745 702.13 155.333 704.271 161.354C713.457 187.19 716.494 216.574 712.981 243.75L712.821 244.884L712.25 245.264L706.775 208.297C701.056 178.08 692.939 148.306 680.965 119.931L668.894 94.25Z"/>
	<path fill="#FEBD2B" transform="scale(0.5 0.5)" d="M260.932 252.421C261.479 238.649 264.564 225.219 267.926 211.902C281.499 158.147 307.958 109.304 345.142 68.2962C349.724 63.2433 354.101 58.0199 359.009 53.2743C350.92 67.7701 341.882 81.4743 334.898 96.6108C328.665 110.117 323.818 124.322 319.387 138.503C306.185 180.752 296.934 229.681 309.208 273.253C312 283.163 315.927 293.16 321.435 301.888C324.792 307.207 328.907 312.033 332.871 316.903L328.242 322.37C320.167 321.721 311.692 319.558 304.247 316.361C290.395 310.415 278.741 300.959 271.693 287.445C268.984 282.251 267.119 276.317 265.587 270.676C264.037 264.967 263.326 258.315 261.132 252.899L260.932 252.421Z"/>
	<path fill="#FEFEFE" transform="scale(0.5 0.5)" d="M317.198 118.25C317.689 118.37 317.414 118.253 317.943 118.75C315.27 126.233 310.843 133.192 307.625 140.473C300.655 156.249 294.893 172.88 290.61 189.589C287.808 200.521 284.8 212.228 283.39 223.413L281.844 239.357C281.595 242.483 281.655 245.703 280.872 248.75L280.328 247.75L279.511 242.754C275.036 212.398 282.862 184.133 295.344 156.647C301.346 143.43 308.522 129.943 317.198 118.25Z"/>
	<path fill="#323030" transform="scale(0.5 0.5)" d="M669.81 678.424C668.092 681.153 670.035 698.077 670.285 702.292C671.843 728.635 671.852 754.325 670.406 780.66C657.937 791.422 643.776 801.197 629.643 809.657C621.901 814.291 613.696 819.039 605.262 822.276L615.814 790.217L621.278 769.359C623.257 762.125 626.032 754.374 626.72 746.916L616.356 771.129C606.85 791.022 595.961 808.869 582.915 826.64C581.163 829.026 578.646 833.522 576.258 835.175C574.278 836.545 571.278 837.492 569.048 838.422L554.288 844.207C554.129 843.391 554.921 841.857 555.228 841.021C560.429 826.843 567.247 813.038 573.16 799.116L608.608 716.774L632.494 664L647.123 626.5L651.809 612.877C652.823 609.876 653.401 607.169 655.175 604.458L655.125 605.188C654.751 610.254 653.361 615.301 652.481 620.314C648.768 641.469 642.336 661.745 635.746 682.132L616.048 745.661L637.447 710.422C637.222 720.171 635.434 729.763 633.831 739.363L625.915 780.269C651.773 748.431 663.891 708.848 668.416 668.692C669.148 671.769 669.807 675.255 669.81 678.424Z"/>
	<path fill="#686868" transform="scale(0.5 0.5)" d="M521.061 351.955C518.869 351.405 516.407 351.611 514.153 351.346L484.093 349.293C483.976 343.936 484.334 338.429 485.229 333.143C488.338 314.765 496.253 296.428 508.041 281.932C511.44 277.752 515.16 273.506 519.582 270.38C521.696 271.303 524.179 271.032 526.451 271.091L537.012 271.728C551.606 273.05 565.439 276.29 579.285 280.958C583.133 282.255 588.34 283.758 591.553 286.233C597.201 308.933 598.916 332.943 594.545 356.064C594.032 358.778 593.704 362.959 592.497 365.392C569.009 356.731 545.942 353.198 521.061 351.955Z"/>
	<path transform="scale(0.5 0.5)" d="M528.301 309.622L528.715 309.653C531.393 309.828 533.561 310.02 535.957 311.36C540.455 313.876 543.923 318.122 545.207 323.144C546.249 327.216 545.549 331.923 543.382 335.481C540.638 339.984 536.55 342.279 531.562 343.441C528.454 343.342 525.221 342.812 522.492 341.261C518.654 339.081 515.964 335.519 514.843 331.251C513.588 326.474 514.984 320.386 517.561 316.25C520.153 312.091 523.688 310.623 528.301 309.622Z"/>
	<path fill="#C06500" transform="scale(0.5 0.5)" d="M539.845 318.482C541.078 321.831 541.743 325.165 540.146 328.544C538.785 331.424 536.557 333.803 533.5 334.859C530.155 336.014 525.976 335.689 522.865 334.028C520.514 332.773 518.277 330.331 517.49 327.75C516.953 325.989 516.864 324.07 516.84 322.24C517.328 322.641 517.018 322.432 517.933 322.783C519.301 323.306 519.87 324.49 520.694 325.645C522.307 327.908 524.952 329.616 527.739 329.957C530.843 330.336 533.8 329.476 536.192 327.49C539.288 324.92 539.41 322.195 539.845 318.482Z"/>
	<path fill="#FEBD2B" transform="scale(0.5 0.5)" d="M516.84 322.24C517.723 318.31 519.217 315.219 522.797 313.111C525.568 311.479 529.289 310.84 532.407 311.767C535.994 312.834 538.042 315.377 539.845 318.482C539.41 322.195 539.288 324.92 536.192 327.49C533.8 329.476 530.843 330.336 527.739 329.957C524.952 329.616 522.307 327.908 520.694 325.645C519.87 324.49 519.301 323.306 517.933 322.783C517.018 322.432 517.328 322.641 516.84 322.24Z"/>
	<path fill="#686868" transform="scale(0.5 0.5)" d="M664.53 543.44C668.319 558.086 669.691 573.515 672.698 588.361C680.754 628.135 692.49 668.477 710.716 704.823L719.036 720.5C720.533 723.262 722.062 726.69 724.123 729.041C720.812 734.402 716.312 739.374 712.101 744.061C703.736 753.37 694.741 761.974 685.431 770.326C684.413 766.798 684.799 762.166 684.41 758.448L681.84 741.73L669.81 678.424C669.807 675.255 669.148 671.769 668.416 668.692C663.891 708.848 651.773 748.431 625.915 780.269L633.831 739.363C635.434 729.763 637.222 720.171 637.447 710.422L616.048 745.661L635.746 682.132C642.336 661.745 648.768 641.469 652.481 620.314C653.361 615.301 654.751 610.254 655.125 605.188L655.175 604.458L658.142 592.618C658.753 592.048 659.221 589.412 659.463 588.5C662.275 577.889 662.91 566.306 663.675 555.384C663.958 551.352 663.731 547.433 664.53 543.44Z"/>
	<path fill="#323030" transform="scale(0.5 0.5)" d="M765.015 795.761L795.076 817.339C785.482 840.049 771.677 861.624 757.75 881.87C750.315 892.678 743.186 903.406 733.711 912.569C728.178 917.921 721.945 922.256 715.708 926.729C690.733 944.641 661.602 959.658 631.484 966.591C619.334 969.387 606.147 969.512 593.723 970.504C582.902 971.368 571.672 972.898 560.847 972.737C585.667 966.743 609.767 957.3 632.66 946.06C670.957 927.256 708.67 902.133 737.811 870.739C741.273 867.009 747.25 861.42 748.863 856.698L732.516 872.709C724.925 879.552 716.4 885.703 707.963 891.463C680.358 910.307 650.265 927.488 619.097 939.659C605.135 945.112 590.874 949.37 576.521 953.633C573.235 954.608 560.997 959.176 558.569 958.716C576.037 951.738 593.363 944.319 609.918 935.341C638.604 919.784 665.031 900.665 690.246 880.018C706.302 866.871 722.007 853.201 735.723 837.554C746.999 824.69 756.816 810.77 765.015 795.761Z"/>
	<path fill="#DE4B14" transform="scale(0.5 0.5)" d="M674.129 513.523C677.932 515.238 681.417 517.521 684.981 519.677C693.708 524.956 701.953 530.743 709.967 537.047C754.502 572.081 787.838 616.686 807.997 669.702C814.513 686.841 818.771 705.224 822.005 723.25C823.111 729.415 824.569 736.119 824.588 742.384C821.558 740.689 818.614 739.446 815.337 738.307C811.666 742.041 810.433 746.607 809.174 751.51C805.312 748.939 801.299 746.543 797.19 744.39C795.346 743.424 790.818 741.918 789.469 740.589C789.049 740.175 788.658 737.167 788.54 736.57L786.018 724.5C782.359 708.539 777.911 692.14 772.119 676.819C754.969 664.886 733.478 655.745 712.913 651.788C707.497 641.101 703.685 629.203 699.929 617.851L685.25 567.487L674.129 513.523Z"/>
	<path fill="#A92D0A" transform="scale(0.5 0.5)" d="M155.866 802.369C153.294 773.629 154.199 745.189 159.07 716.754C173.597 631.949 221.993 551.056 292.58 501.028C295.101 507.783 299.149 512.986 303.377 518.709C310.8 528.757 314.363 538.405 314.545 550.961C303.38 558.665 293.885 569.765 284.913 579.848C279.279 586.18 273.51 592.587 268.352 599.31C250.107 623.092 235.121 650.54 225.249 678.828C219.269 695.963 215.238 713.854 211.987 731.688C211.038 736.892 209.725 742.648 210.037 747.954C193.955 754.737 176.87 761.464 162.133 770.905C160.483 777.918 160.344 785.388 159.822 792.555C159.73 793.815 159.831 798.521 159.305 799.453C158.869 800.225 157.038 801.664 156.253 802.158L155.866 802.369Z"/>
	<path fill="#FEBD2B" transform="scale(0.5 0.5)" d="M415.857 571.4L465.558 514.66C471.227 519.463 475.813 525.871 480.168 531.84C491.562 547.459 501.89 564.087 509.877 581.711C518.204 576.218 526.592 570.804 535.382 566.073C558.06 553.866 583.582 544.007 598.549 521.712C603.07 514.978 604.962 507.661 608.531 500.566C610.409 520.363 610.338 540.032 603.296 558.878C598.403 562.598 593.639 566.35 588.383 569.57C587.274 570.249 582.221 572.467 581.826 573.211C570.171 577.839 557.326 581.499 547.184 589.125C540.822 593.908 535.675 600.512 531.883 607.469C527.626 611 524.619 616.674 521.08 620.973C517.646 625.143 513.773 628.751 510.024 632.613C504.043 616.319 492.693 606.818 477.702 599.096C479.445 602.035 483.415 604.957 485.826 607.48C489.893 611.737 493.162 616.743 495.906 621.933C496.157 626.159 497.966 630.114 498.764 634.277C501.072 646.306 499.142 660.078 493.446 671C489.943 677.719 485.338 680.425 478.299 682.539C453.375 690.027 424.708 680.233 401.29 671.494C394.162 668.833 386.81 666.366 380.083 662.795C388.588 660.469 396.568 658.581 402.813 651.813C412.488 641.327 420.624 628.732 427.121 616.05C427.995 614.345 430.056 611.182 429.841 609.256L429.722 608.492C432.995 600.965 436.025 596.355 433.11 588C430.311 579.974 423.176 574.961 415.857 571.4Z"/>
	<path transform="scale(0.5 0.5)" d="M445.521 645.25C445.868 645.169 446.167 645.076 446.538 645.118C447.9 645.273 449.1 645.947 449.855 647.115C450.737 648.481 450.752 650.454 450.418 652C450.092 653.511 448.982 654.173 447.75 654.889C447.305 654.952 446.689 655.065 446.25 654.993C445.024 654.79 444.356 654.227 443.669 653.251C442.758 651.958 442.496 650.327 442.83 648.794C443.226 646.975 444.046 646.289 445.521 645.25Z"/>
	<path transform="scale(0.5 0.5)" d="M484.025 661.75C484.497 661.578 484.728 661.463 485.267 661.423C486.65 661.32 487.982 662.125 488.818 663.176C489.595 664.153 490.154 666.272 489.894 667.5C489.502 669.351 488.635 669.991 487.25 671.081C486.78 671.305 486.548 671.452 485.992 671.528C484.636 671.713 483.358 670.983 482.496 670C481.342 668.685 481.194 666.648 481.538 665C481.855 663.483 482.836 662.622 484.025 661.75Z"/>
	<path transform="scale(0.5 0.5)" d="M485.283 636.25C485.885 636.248 486.656 636.193 487.25 636.374C488.279 636.687 489.073 637.332 489.638 638.221C490.625 639.773 490.721 641.486 490.197 643.231C489.691 644.917 488.684 645.52 487.25 646.299L485.75 646.395C484.338 645.767 483.345 645.402 482.656 643.9C481.992 642.454 481.876 640.216 482.543 638.75C483.196 637.313 483.946 636.88 485.283 636.25Z"/>
	<path transform="scale(0.5 0.5)" d="M462.093 620.25C462.553 620.095 462.741 620.006 463.271 619.972C464.746 619.876 465.928 620.508 466.874 621.599C468.013 622.914 467.965 624.616 467.944 626.25C467.201 627.968 466.84 628.481 465.25 629.469C464.597 629.61 464.201 629.728 463.5 629.721C462 629.708 460.638 628.815 459.854 627.573C459.166 626.485 459.11 624.979 459.355 623.755C459.723 621.913 460.653 621.258 462.093 620.25Z"/>
	<path transform="scale(0.5 0.5)" d="M466.593 643.25C467.324 643.168 467.381 643.108 468.127 643.246C469.309 643.465 470.275 644.155 470.837 645.232C471.623 646.741 471.63 648.923 471.022 650.5C470.426 652.043 469.667 652.395 468.25 653.1C467.669 653.12 467.077 653.169 466.5 653.053C465.174 652.787 463.984 651.774 463.345 650.601C462.637 649.3 462.571 647.608 463.155 646.25C463.881 644.561 464.969 643.925 466.593 643.25Z"/>
	<path transform="scale(0.5 0.5)" d="M463.182 666.75C464.182 666.446 465.215 666.452 466.247 666.576C467.553 666.733 468.651 667.432 469.375 668.535C470.236 669.848 470.334 671.94 469.907 673.42C469.254 675.685 467.702 676.859 465.75 677.988C464.588 678.389 463.732 678.437 462.561 678.085C461.278 677.699 460.251 676.739 459.656 675.551C458.889 674.018 458.777 672.169 459.337 670.551C460.046 668.507 461.286 667.618 463.182 666.75Z"/>
	<path fill="#AE8F64" transform="scale(0.5 0.5)" d="M448.541 967.996C440.415 964.452 432.529 958.981 424.828 954.5C387.569 932.822 351.915 907.594 322.289 876.111C315.623 869.027 309.009 861.936 303.146 854.156C285.236 830.389 268.277 802.475 261.319 773.25C259.763 766.718 258.425 760.056 259.413 753.331C260.253 747.619 262.619 742.191 265.055 737C270.896 724.555 278.396 713.294 289.536 705.095L289.225 705.948C283.058 723.278 285.456 739.9 293.298 756.212C301.009 772.25 312.319 786.623 324.637 799.371C351.476 827.146 383.137 846.561 418.667 861.178L454.83 874.31C446.94 896.383 443.248 921.718 445.381 945.085L447.4 960.238C447.792 962.67 448.672 965.555 448.541 967.996Z"/>
	<path transform="scale(0.5 0.5)" d="M270.221 739.358C270.322 741.707 270.611 743.932 271.092 746.231C274.726 763.62 287.814 774.039 301.97 783.25L300.363 783.232L293.99 781.702C285.062 779.339 274.867 773.776 270.192 765.515C265.177 756.652 267.641 748.476 270.221 739.358Z"/>
	<path transform="scale(0.5 0.5)" d="M368.509 877.87C370.975 879.749 373.051 882.103 375.413 884.115C378.27 886.547 381.531 888.752 384.68 890.792C400.514 901.048 418.113 904.157 436.543 900.307L430.408 905.163L425.075 908.153C416.1 912.19 406.69 912.445 397.5 908.964C383.114 903.515 374.552 891.454 368.509 877.87Z"/>
	<path transform="scale(0.5 0.5)" d="M298.31 806.107L306.935 821.779C320.735 843.582 341.275 853.542 365.75 859.068L365.981 859.48L364.75 860.001L353.086 861.321C340.314 862.293 326.88 858.936 317.166 850.331C303.872 838.553 299.305 823.27 298.31 806.107Z"/>
	<defs>
		<linearGradient id="gradient_13" gradientUnits="userSpaceOnUse" x1="507.11621" y1="631.48828" x2="597.90436" y2="700.72467">
			<stop offset="0" stop-color="#321F03"/>
			<stop offset="1" stop-color="#363334"/>
		</linearGradient>
	</defs>
	<path fill="url(#gradient_13)" transform="scale(0.5 0.5)" d="M467.255 790.804C480.571 785.1 491.916 775.402 502.088 765.235C525.183 742.153 543.059 714.862 555.814 684.824C562.454 669.186 566.839 651.032 576.515 637C584.759 625.044 596.429 616.697 607.724 607.884C602.21 623.74 596.946 639.593 590.188 654.995C574.088 691.686 550.497 725.509 523.533 755L523.75 755.527C527.791 752.603 531.509 748.278 534.939 744.646L552.469 725.345C567.39 708.047 581.656 690.442 594.638 671.622C608.002 652.248 619.134 632.066 629.525 610.991L638.844 592.516C644.051 581.16 648.565 569.214 652.678 557.416C655.642 548.917 658.087 539.918 659.653 531.047C660.661 525.334 661.146 519.01 662.644 513.473L663.727 526.967L664.433 526.873L664.931 528.002C664.078 532.99 664.496 538.386 664.53 543.44C663.731 547.433 663.958 551.352 663.675 555.384C662.91 566.306 662.275 577.889 659.463 588.5C659.221 589.412 658.753 592.048 658.142 592.618L657.647 592.5C654.108 598.826 651.688 606.119 648.775 612.778L637.92 635.161C627.377 656.292 614.679 675.878 602.011 695.756C600.701 697.811 594.239 708.976 592.701 709.733L558.101 763.442L527.904 813.145L506.011 852.554L502.225 859.439C502.113 859.644 501.442 861.002 501.331 861.075C500.471 861.642 497.255 861.953 496.121 862.203L479.288 865.796C477.782 866.07 476.241 866.271 474.776 866.712C468.215 868.281 462.38 865.846 456.229 863.661C447.799 845.323 440.021 827.183 433.612 808.013L421.798 767.773L421.677 767.775C420.736 767.068 420.056 766.224 419.312 765.325C417.972 759.862 416.689 752.209 416.933 746.621C425.22 757.451 433.264 770.015 443.712 778.901C449.42 784.442 454.049 788.993 462 790.939L462.526 791.072C464.177 791.46 465.403 791.167 467.032 790.838L467.255 790.804Z"/>
	<defs>
		<linearGradient id="gradient_14" gradientUnits="userSpaceOnUse" x1="439.58557" y1="854.64972" x2="480.13705" y2="767.6521">
			<stop offset="0" stop-color="#BB5E00"/>
			<stop offset="1" stop-color="#E88F01"/>
		</linearGradient>
	</defs>
	<path fill="url(#gradient_14)" transform="scale(0.5 0.5)" d="M421.798 767.773L422.251 768.208C424.226 770.183 425.666 773.792 427.138 776.267L437.75 793.444C446.561 806.756 456.718 819.836 467.235 831.834C477.763 824.975 487.679 815.996 496.847 807.458L508.196 796.411C509.356 795.24 511.4 792.542 512.803 791.858L513.628 792.133L519.65 786.261C521.735 788.64 521.27 790.39 521.16 793.339L519.744 795.735L519.252 795.99C517.607 797.007 516.037 798.704 515.25 800.432C513.753 803.722 510.436 807.182 508.096 809.966L493.61 827.012L477.25 848.778C475.488 851.368 472.806 854.512 471.77 857.425L474.776 866.712C468.215 868.281 462.38 865.846 456.229 863.661C447.799 845.323 440.021 827.183 433.612 808.013L421.798 767.773Z"/>
	<path fill="#FEBD2B" transform="scale(0.5 0.5)" d="M512.803 791.858C515.167 789.006 518.18 786.435 520.835 783.833L535.487 769.326L573.234 730.153C576.472 726.783 589.934 710.636 592.701 709.733L558.101 763.442L527.904 813.145L506.011 852.554L502.225 859.439C502.113 859.644 501.442 861.002 501.331 861.075C500.471 861.642 497.255 861.953 496.121 862.203L479.288 865.796C477.782 866.07 476.241 866.271 474.776 866.712L471.77 857.425C472.806 854.512 475.488 851.368 477.25 848.778L493.61 827.012L508.096 809.966C510.436 807.182 513.753 803.722 515.25 800.432C516.037 798.704 517.607 797.007 519.252 795.99L519.744 795.735L521.16 793.339C521.27 790.39 521.735 788.64 519.65 786.261L513.628 792.133L512.803 791.858Z"/>
	<path fill="#A92D0A" transform="scale(0.5 0.5)" d="M681.667 459.762C685.076 460.288 687.65 462.128 690.604 463.776L702.345 470.538C744.888 496.346 781.271 530.234 810.655 570.362C841.693 612.749 861.981 660.055 872.555 711.5C877.026 733.251 880.004 755.756 880.015 778.004C877.64 776.933 875.011 774.476 872.841 772.913L858.123 762.671L824.588 742.384C824.569 736.119 823.111 729.415 822.005 723.25C818.771 705.224 814.513 686.841 807.997 669.702C787.838 616.686 754.502 572.081 709.967 537.047C701.953 530.743 693.708 524.956 684.981 519.677C681.417 517.521 677.932 515.238 674.129 513.523L670.478 491.5C670.266 490.229 669.213 486.715 669.436 485.587C669.464 485.445 671.088 483.904 671.246 483.735C672.46 482.439 673.546 481.103 674.453 479.574C678.144 473.345 680.227 466.819 681.667 459.762Z"/>
	<path fill="#FEFEFE" transform="scale(0.5 0.5)" d="M716.164 661.856C726.35 665.208 736.305 668.68 745.963 673.401L763.378 682.781C766.311 688.398 767.894 695.247 769.607 701.347C772.966 713.31 776.056 725.329 778.304 737.556C778.72 739.818 780.089 744.761 779.435 746.838L768.278 772.139C748.665 812.672 717.533 845.052 681.565 871.492C646.576 897.214 607.907 917.735 567.971 934.697L479.628 967.768L462.226 974.045L461.577 974.339C460.349 966.45 460.42 957.807 460.406 949.82C460.361 922.881 462.832 895.914 470.797 870.064C491.047 868.085 511.315 863.529 530.868 857.98C558.092 850.253 585.06 840.127 610.371 827.445C622.334 821.45 633.727 814.533 644.981 807.312C682.647 783.141 719.232 751.524 741.074 711.89C745.62 703.642 749.903 695.145 752.858 686.186C752.927 685.977 753.733 683.634 753.705 683.574C752.954 681.938 730.768 671.465 728.074 670.297L721.2 667.532C720.629 667.315 718.951 666.902 718.528 666.529C717.744 665.837 716.703 662.921 716.164 661.856Z"/>
	<path fill="#AE8F64" transform="scale(0.5 0.5)" d="M760.975 685.217C762.392 691.548 764.986 697.759 766.763 704.022C769.331 713.07 770.824 722.494 772.276 731.777C772.863 735.533 774.023 739.949 773.434 743.75C772.687 748.574 769.807 754.287 767.866 758.758C753.042 792.904 728.327 823.047 700.047 847.005C683.938 860.652 666.483 872.448 648.622 883.651C623.149 899.63 596.575 913.819 569.083 926.005L474.331 963.503L465.516 967.051C464.902 964.213 465.372 960.561 465.418 957.638C465.678 941.214 467.862 924.449 470.906 908.325C472.749 898.563 474.706 888.905 477.672 879.407C481.09 878.432 484.809 878.109 488.313 877.454L510.193 872.969C532.317 867.86 553.917 860.79 575.033 852.473C590.228 846.489 604.917 839.308 619.373 831.736C662.678 809.052 704.711 779.332 732.936 738.729C744.69 721.82 752.797 703.976 760.975 685.217Z"/>
	<path transform="scale(0.5 0.5)" d="M759.208 712.25L759.684 712.202C760.572 713.741 760.67 715.722 760.93 717.469C761.942 724.279 761.728 731.005 759.933 737.654C757.406 747.013 750.766 751.693 742.75 756.238L741.5 756.809L741.179 756.525C751.318 743.844 758.343 728.652 759.208 712.25Z"/>
	<path transform="scale(0.5 0.5)" d="M579.237 892.25C579.665 892.413 579.425 892.282 579.887 892.75C569.617 904.695 553.471 913.049 538 915.303C524.974 917.201 512.812 913.794 502.387 906.06C500.121 903.867 498.58 901.437 496.931 898.779C501.727 900.459 506.274 902.228 511.29 903.217C534.163 907.728 558.119 900.724 579.237 892.25Z"/>
	<path transform="scale(0.5 0.5)" d="M711.475 789.651C711.041 804.55 704.16 818.895 693.597 829.184C682.022 840.46 667.08 846.935 651.102 848.624C645.518 849.215 639.856 849.023 634.25 848.942L633.582 848.265L643.69 845.528C666.481 838.036 690.037 823.123 703.934 803.192C706.872 798.979 709.144 794.22 711.475 789.651Z"/>
	<path fill="#323030" transform="scale(0.5 0.5)" d="M328.034 384.185C330.776 383.476 333.43 382.808 336.25 382.475C347.228 381.178 357.405 382.055 367.93 385.32C381.119 385.233 395.226 391.943 406.757 397.88C414.903 402.073 423.471 406.834 430.056 413.3L431.702 414.976C445.586 410.386 458.213 401.428 471.732 395.682C494.484 386.013 521.141 382.479 545.625 386.189C565.049 389.132 583.542 396.153 601.055 404.872L614.385 411.834C621.152 440.913 628.389 470.33 628.125 500.4C628.009 513.566 626.23 526.351 623.919 539.286C627.528 532.012 629.345 523.268 631.19 515.408C637.749 487.476 641.459 459.11 639.899 430.365C642.755 432.295 647.189 436.414 648.945 439.396C649.231 467.165 649.99 495.502 644.269 522.828C642.043 533.464 639.039 543.969 633.924 553.607C632.446 556.392 630.843 560.439 628.664 562.669C627.454 563.123 626.811 564.36 626.005 565.358L619.151 573.462C616.006 576.908 612.604 580.275 609.046 583.294C598.745 592.036 587.939 598.117 576.018 604.238C589.73 591.41 598.193 576.852 603.296 558.878C610.338 540.032 610.409 520.363 608.531 500.566C604.962 507.661 603.07 514.978 598.549 521.712C583.582 544.007 558.06 553.866 535.382 566.073C526.592 570.804 518.204 576.218 509.877 581.711C501.89 564.087 491.562 547.459 480.168 531.84C475.813 525.871 471.227 519.463 465.558 514.66L415.857 571.4C406.284 566.886 395.705 564.865 385.337 563.045C382.26 561.932 378.178 561.854 374.906 561.555C356.883 559.911 340.36 561.597 322.491 563.969L336.789 543.754L337.251 542.906C342.434 533.582 350.086 524.722 356.581 516.26L383.697 481.427C390.859 472.756 398.833 464.334 404.528 454.595C407.842 448.93 410.565 441.92 411.685 435.43C406.37 445.857 398.881 454.197 387.488 458.063L382.187 459.281C374.257 454.289 368.428 448.077 362.377 441.048C356.859 434.636 352.407 428.635 345.156 423.969C340.564 421.014 332.021 418.134 326.651 419.715C323.975 420.502 323.229 424.654 321.552 426.605C318.393 430.279 314.892 433.53 311.847 437.345C311.721 438.868 313.627 441.505 314.393 442.942C318.223 450.129 321.952 457.471 327.273 463.694C332.306 469.58 337.863 473.643 345.523 475.329C349.285 476.157 353.681 475.634 357.38 474.75C364.919 472.948 370.855 469.549 376.344 464.053C377.186 465.91 378.538 468.001 378.956 469.96C374.459 472.791 370.133 475.928 365.51 478.544C362.895 480.024 359.924 480.882 357.403 482.475C362.094 481.351 366.514 480.152 370.809 477.885C373.406 476.514 378.357 472.076 381 471.867L382.375 473.25C381.985 475.383 380.05 477.258 378.731 478.945L367.902 492.082L343.525 522C338.773 528.209 334.467 534.793 329.365 540.724C327.944 542.376 326.412 544.542 324.699 545.844L324.252 546.139C324.918 543.957 326.608 540.653 326.843 538.501C326.944 537.575 326.13 535.225 325.831 534.232C322.245 522.331 313.369 513.848 307.439 503.216C305.347 499.464 303.985 495.784 303.115 491.559C301.23 482.413 303.38 472.515 305.319 463.542C305.87 460.991 306.874 458.461 306.806 455.846L306.788 455.402C306.909 453.75 308.059 451.918 308.786 450.457C307.871 448.432 307.028 446.195 305.803 444.341L304.343 442.015C304.692 435.424 303.943 428.996 304.722 422.328C305.89 412.331 310.339 403.623 312.986 394.103L313.097 393.692C316.03 389.618 323.209 385.4 328.034 384.185Z"/>
	<path fill="#939394" transform="scale(0.5 0.5)" d="M605.18 431.641L605.69 434.75C607.617 445.101 608.12 459.252 605.758 469.551C604.42 475.386 602.805 480.998 600.134 486.388C593.172 500.441 579.94 511.64 565.098 516.639C546.529 522.893 526.767 517.546 509.786 509.112L502.046 504.619C510.902 507.931 519.821 510.896 529.33 511.475C548.741 512.656 564.582 506.295 578.98 493.551C591.662 482.324 600.259 465.822 603.39 449.25C604.483 443.46 604.832 437.512 605.18 431.641Z"/>
	<path fill="#FEBD2B" transform="scale(0.5 0.5)" d="M328.034 384.185C330.776 383.476 333.43 382.808 336.25 382.475C347.228 381.178 357.405 382.055 367.93 385.32C378.637 391.261 389.263 401.387 394.104 412.818C396.005 417.307 397.227 423.614 395.157 428.235C393.893 431.055 391.263 433.138 388.421 434.224C373.96 439.747 365.028 422.405 358.918 412.511C355.879 407.59 352.796 402.667 348.928 398.342C342.694 391.372 336.389 387.817 328.034 384.185Z"/>
	<path fill="#FEBD2B" transform="scale(0.5 0.5)" d="M510.747 389.203L525.374 389.073C522.939 394.914 520.06 399.668 516.239 404.706C510.802 411.876 504.504 418.363 498.09 424.658C493.078 429.577 487.531 435.077 481.25 438.322C477.225 440.401 473.216 441.385 468.758 442C465.006 441.601 461.025 441.142 457.912 438.796C455.375 436.882 453.887 433.812 453.479 430.688C452.626 424.156 455.799 417.192 459.872 412.27C471.326 398.431 493.434 390.804 510.747 389.203Z"/>
	<path transform="scale(0.5 0.5)" d="M536.542 412.207C540.279 412.053 544.445 412.286 548.076 413.223L549 413.467L549.877 413.689C559.19 416.109 570.807 422.111 575.828 430.682C564.241 424.309 552.173 417.793 538.467 418.627C530.111 419.136 520.547 422.29 514.081 427.776C512.222 429.353 510.583 431.459 508.948 433.273C517.242 429.327 525.898 425.694 535.155 424.872L536 424.801C544.404 424.045 553.982 426.264 561.181 430.829C563.071 432.027 565.896 433.817 566.207 436.25C566.422 437.924 566.034 439.884 565.797 441.552C564.847 448.264 562.273 455.893 558.286 461.447L557.895 461.978L554.203 466.505C547.346 473.831 536.492 478.215 526.5 478.326C512.637 478.48 499.657 472.966 489.855 463.371L484.21 473.457C495.912 483.066 511.908 490.228 527.381 489.446C544.926 488.56 558.61 480.757 570.343 467.999C577.979 459.751 584.488 448.998 588.486 438.476C590.321 433.649 591.469 428.732 592.91 423.794C593.027 427.37 592.875 430.636 592.32 434.188C589.37 453.037 578.2 473.511 562.673 484.885C548.101 495.56 531.954 498.373 514.328 495.515C503.596 493.774 492.014 489.899 482.75 484.161C480.088 482.511 476.976 480.48 475.052 478.006C474.037 476.701 474.217 475.083 473.255 473.75C469.302 473.39 466.106 472.643 462.68 470.588C452.756 464.636 447.843 453.003 445.079 442.338C448.592 447.014 450.771 452.306 454.905 456.608C458.723 460.58 463.083 463.099 468.75 462.944C476.993 462.72 489.909 443.194 495.621 436.682C506.835 423.898 518.851 413.356 536.542 412.207Z"/>
	<path fill="#E08500" transform="scale(0.5 0.5)" d="M515.502 451.638L516.074 451.088C517.088 450.312 518.342 450.827 519.502 451.006L521.614 452.556C520.232 453.463 519.975 453.915 519.414 455.39C517.957 454.325 516.748 452.939 515.502 451.638Z"/>
	<path fill="#FEBD2B" transform="scale(0.5 0.5)" d="M519.414 455.39C519.975 453.915 520.232 453.463 521.614 452.556C524.418 453.698 526.653 454.384 529.664 454.752C530.475 454.851 530.187 454.804 531.012 455.27L529.48 455.993C525.951 457.422 522.817 456.779 519.414 455.39Z"/>
	<path fill="#C06500" transform="scale(0.5 0.5)" d="M515.502 451.638L515.203 451.398C513.113 449.062 511.614 445.878 511.505 442.75C511.988 441.662 512.206 441.158 513.25 440.549C515.081 443.842 515.882 446.912 519.168 449.16L519.525 449.394L519.502 451.006C518.342 450.827 517.088 450.312 516.074 451.088L515.502 451.638Z"/>
	<path fill="#2E2010" transform="scale(0.5 0.5)" d="M519.525 449.394L520.245 449.53C524.967 450.375 529.691 450.416 533.716 447.407C535.716 445.911 537.397 443.751 539.045 441.878C538.956 446.005 537.308 450.017 534.323 452.865C533.278 453.862 532.266 454.57 531.012 455.27C530.187 454.804 530.475 454.851 529.664 454.752C526.653 454.384 524.418 453.698 521.614 452.556L519.502 451.006L519.525 449.394Z"/>
	<path fill="#FEFEFE" transform="scale(0.5 0.5)" d="M536.674 431.25C544.084 430.737 552.073 434.122 558.481 437.468C558.551 437.959 558.586 438.085 558.567 438.65C558.285 447.089 554.047 456.856 547.91 462.628C540.855 469.262 532.122 472.332 522.414 471.896C514.779 471.553 508.351 469.227 501.637 465.713C499.94 464.825 497.454 463.655 496.25 462.163C495.746 461.54 496.311 460.161 496.471 459.393L498.16 453.953C499.027 449.927 501.491 448.101 504.464 445.454C505.708 449.929 507.003 453.676 510.355 457.04C514.301 461 519.647 463.329 525.267 463.249C531.386 463.162 536.654 460.838 540.828 456.331C546.216 450.513 547.168 444.014 546.74 436.427L544.571 438.508C542.336 440.536 540.818 441.419 537.75 441.276C536.428 440.64 535.447 440.055 534.485 438.923C533.114 437.31 533.413 435.699 533.592 433.75C534.718 432.168 534.994 432.013 536.674 431.25Z"/>
	<path fill="#686868" transform="scale(0.5 0.5)" d="M336.789 543.754L337.104 544.618L324.697 562.35L325.25 563L327.125 562.617L329 562.378C329.513 562.32 330.022 562.226 330.528 562.125C331.45 561.94 332.329 561.981 333.259 561.93C334.488 561.863 333.228 561.931 334.75 561.5C335.817 561.198 337.074 561.3 338.25 561L340 560.878C340.562 559.963 340.999 559.598 341.002 558.503C341.731 557.323 342.148 556.409 342.625 555.125L342.948 554.437C343.351 553.558 343.2 553.998 343.371 553.134C343.539 552.289 343.891 551.768 344.255 551L347.255 544.5L348 543.25L348.002 542.503L348.454 541.736C348.972 540.846 349.34 539.94 349.755 539L356.528 527.231C363.388 516.373 370.071 505.92 378.086 495.833C383.172 489.434 388.766 483.347 394.415 477.443C401.745 469.78 413.959 460.29 416.992 449.75C418.131 445.79 418.034 441.339 418.12 437.254C418.288 429.258 417.903 420.801 419.157 412.893C422.452 416.635 426.315 421.752 430.728 424.097L436.511 421.047C434.696 430.12 430.378 439.396 430.305 448.603C430.265 453.667 430.88 458.732 431.839 463.698L434.98 477.662C435.748 480.938 436.755 484.143 436.108 487.5L435.965 488.346C434.517 496.601 430.597 505.002 426.687 512.362C416.377 531.768 402.579 549.402 385.337 563.045C382.26 561.932 378.178 561.854 374.906 561.555C356.883 559.911 340.36 561.597 322.491 563.969L336.789 543.754Z"/>
</svg>
